<?xml version="1.0" encoding="utf-8"?>
<!-- Generator: Adobe Illustrator 17.1.0, SVG Export Plug-In . SVG Version: 6.00 Build 0)  -->
<!DOCTYPE svg PUBLIC "-//W3C//DTD SVG 1.1//EN" "http://www.w3.org/Graphics/SVG/1.1/DTD/svg11.dtd">
<svg version="1.1" xmlns="http://www.w3.org/2000/svg" xmlns:xlink="http://www.w3.org/1999/xlink" x="0px" y="0px"
	 viewBox="0 0 202 104" style="enable-background:new 0 0 202 104;" xml:space="preserve">
<style type="text/css">
	.st0{display:none;}
	.st1{display:inline;}
	.st2{clip-path:url(#SVGID_2_);}
	.st3{display:inline;opacity:0.15;fill:#2F2F2F;}
	.st4{display:inline;opacity:0.96;fill:#2F2F2F;}
	.st5{display:inline;fill:#FFE01B;}
	.st6{display:inline;fill:#565656;}
	.st7{fill:#2F2F2F;}
	.st8{opacity:0.96;}
	.st9{opacity:0.96;fill:#2F2F2F;}
	.st10{fill:#B1B1B1;}
	.st11{display:inline;fill:none;stroke:#C9AC1C;stroke-width:2.8324;stroke-miterlimit:10;}
	.st12{opacity:0.15;fill:#2F2F2F;}
	.st13{fill:#FFE01B;}
	.st14{fill:#FFFFFF;}
	.st15{fill:#066A89;}
	.st16{fill:#0092C9;}
	.st17{display:inline;fill:#A3A3A3;}
	.st18{display:inline;fill:#EFEFEF;}
	.st19{display:inline;fill:url(#SVGID_3_);}
	.st20{clip-path:url(#SVGID_5_);fill:url(#SVGID_6_);}
	.st21{clip-path:url(#SVGID_5_);fill:url(#SVGID_7_);}
	.st22{clip-path:url(#SVGID_5_);fill:url(#SVGID_8_);}
	.st23{clip-path:url(#SVGID_5_);fill:url(#SVGID_9_);}
	.st24{display:inline;fill:url(#SVGID_10_);}
	.st25{opacity:0.61;}
	.st26{clip-path:url(#SVGID_12_);fill:url(#SVGID_13_);}
	.st27{clip-path:url(#SVGID_12_);fill:url(#SVGID_14_);}
	.st28{clip-path:url(#SVGID_12_);fill:url(#SVGID_15_);}
	.st29{clip-path:url(#SVGID_12_);fill:url(#SVGID_16_);}
	.st30{display:inline;fill:url(#SVGID_17_);}
	.st31{clip-path:url(#SVGID_19_);fill:url(#SVGID_20_);}
	.st32{clip-path:url(#SVGID_19_);fill:url(#SVGID_21_);}
	.st33{clip-path:url(#SVGID_19_);fill:url(#SVGID_22_);}
	.st34{clip-path:url(#SVGID_19_);fill:url(#SVGID_23_);}
	.st35{display:inline;fill:url(#SVGID_24_);}
	.st36{clip-path:url(#SVGID_26_);fill:url(#SVGID_27_);}
	.st37{clip-path:url(#SVGID_26_);fill:url(#SVGID_28_);}
	.st38{clip-path:url(#SVGID_26_);fill:url(#SVGID_29_);}
	.st39{clip-path:url(#SVGID_26_);fill:url(#SVGID_30_);}
	.st40{fill:#4D4D4D;}
	.st41{fill:#616161;}
	.st42{display:inline;fill:none;stroke:#D3D3D3;stroke-miterlimit:10;}
	.st43{fill:#E3E2E3;}
	.st44{fill:#231F20;}
	.st45{display:inline;fill:url(#SVGID_31_);}
	.st46{clip-path:url(#SVGID_33_);fill:url(#SVGID_34_);}
	.st47{clip-path:url(#SVGID_33_);fill:url(#SVGID_35_);}
	.st48{clip-path:url(#SVGID_33_);fill:url(#SVGID_36_);}
	.st49{clip-path:url(#SVGID_33_);fill:url(#SVGID_37_);}
	.st50{display:inline;fill:url(#SVGID_38_);}
	.st51{clip-path:url(#SVGID_40_);fill:url(#SVGID_41_);}
	.st52{clip-path:url(#SVGID_40_);fill:url(#SVGID_42_);}
	.st53{clip-path:url(#SVGID_40_);fill:url(#SVGID_43_);}
	.st54{clip-path:url(#SVGID_40_);fill:url(#SVGID_44_);}
	.st55{fill:#F4F4F4;}
	.st56{display:inline;fill:#FFFFFF;}
	.st57{display:inline;fill:#C6C6C6;}
	.st58{display:inline;fill:#616161;}
	.st59{fill:#00FF00;}
	.st60{display:inline;fill:#F4F4F4;}
	.st61{fill:#CECECE;}
	.st62{display:inline;fill:none;stroke:#FFFFFF;stroke-miterlimit:10;}
	.st63{fill:#EFEFEF;}
	.st64{display:inline;fill:none;stroke:#2F2F2F;stroke-miterlimit:10;}
	.st65{display:inline;fill:#D0D0D1;}
	.st66{fill:none;stroke:#FFFFFF;stroke-width:2.3655;stroke-linecap:round;stroke-linejoin:round;stroke-miterlimit:10;}
	.st67{display:inline;fill:none;stroke:#05FFAE;stroke-width:1.1828;stroke-miterlimit:10;}
	.st68{display:inline;fill:#33BDFF;}
	.st69{fill:none;stroke:#D3D3D3;stroke-miterlimit:10;}
	.st70{display:inline;fill:url(#SVGID_45_);}
	.st71{clip-path:url(#SVGID_47_);fill:url(#SVGID_48_);}
	.st72{clip-path:url(#SVGID_47_);fill:url(#SVGID_49_);}
	.st73{clip-path:url(#SVGID_47_);fill:url(#SVGID_50_);}
	.st74{clip-path:url(#SVGID_47_);fill:url(#SVGID_51_);}
	.st75{display:inline;fill:url(#SVGID_52_);}
	.st76{clip-path:url(#SVGID_54_);fill:url(#SVGID_55_);}
	.st77{clip-path:url(#SVGID_54_);fill:url(#SVGID_56_);}
	.st78{clip-path:url(#SVGID_54_);fill:url(#SVGID_57_);}
	.st79{clip-path:url(#SVGID_54_);fill:url(#SVGID_58_);}
	.st80{display:inline;fill:url(#SVGID_61_);}
	.st81{fill:#8D7A37;}
	.st82{clip-path:url(#SVGID_63_);fill:url(#SVGID_64_);}
	.st83{clip-path:url(#SVGID_63_);fill:url(#SVGID_65_);}
	.st84{clip-path:url(#SVGID_63_);fill:url(#SVGID_66_);}
	.st85{clip-path:url(#SVGID_63_);fill:url(#SVGID_67_);}
	.st86{clip-path:url(#SVGID_69_);fill:#4D4D4D;}
	.st87{display:inline;fill:url(#SVGID_70_);}
	.st88{fill:#707070;}
	.st89{fill:#D0D0D0;}
	.st90{clip-path:url(#SVGID_74_);fill:url(#SVGID_75_);}
	.st91{clip-path:url(#SVGID_74_);fill:url(#SVGID_76_);}
	.st92{clip-path:url(#SVGID_74_);fill:url(#SVGID_77_);}
	.st93{clip-path:url(#SVGID_74_);fill:url(#SVGID_78_);}
	.st94{display:inline;fill:#2F2F2F;}
	.st95{opacity:0.68;fill:#FFDF00;}
	.st96{opacity:0.9;fill:#2F2F2F;}
	.st97{fill:#050C0B;}
	.st98{fill:#DEDFE0;}
	.st99{fill:#E5E5E5;}
	.st100{fill:url(#SVGID_81_);}
	.st101{clip-path:url(#SVGID_83_);fill:url(#SVGID_84_);}
	.st102{clip-path:url(#SVGID_83_);fill:url(#SVGID_85_);}
	.st103{clip-path:url(#SVGID_83_);fill:url(#SVGID_86_);}
	.st104{clip-path:url(#SVGID_83_);fill:url(#SVGID_87_);}
	.st105{fill:#989898;}
	.st106{fill:#D0D2D3;}
	.st107{fill-rule:evenodd;clip-rule:evenodd;fill:#231F20;}
	.st108{fill:#231F20;stroke:#231F20;stroke-width:0.3741;stroke-miterlimit:3.8637;}
	.st109{fill-rule:evenodd;clip-rule:evenodd;fill:#FFFFFF;}
	.st110{fill:none;stroke:#989898;stroke-miterlimit:10;}
	.st111{fill:none;stroke:#FFFFFF;stroke-miterlimit:10;}
	.st112{fill:none;stroke:#FFFFFF;stroke-width:0.7862;stroke-miterlimit:10;}
	.st113{fill:none;stroke:#FFFFFF;stroke-width:0.9354;stroke-miterlimit:10;}
	.st114{fill:url(#SVGID_92_);}
	.st115{fill:url(#SVGID_93_);}
	.st116{clip-path:url(#SVGID_96_);fill:url(#SVGID_97_);}
	.st117{fill:none;stroke:#ABABAB;stroke-width:0.649;stroke-miterlimit:10;}
	.st118{fill:#A5A5A5;}
	.st119{fill:url(#SVGID_98_);}
	.st120{fill:url(#SVGID_99_);}
	.st121{clip-path:url(#SVGID_102_);fill:url(#SVGID_103_);}
	.st122{fill:url(#SVGID_104_);}
	.st123{fill:url(#SVGID_105_);}
	.st124{fill:url(#SVGID_106_);}
	.st125{fill:url(#SVGID_107_);}
	.st126{fill:url(#SVGID_108_);}
	.st127{fill:url(#SVGID_109_);}
	.st128{fill:url(#SVGID_110_);}
	.st129{opacity:0.29;fill:url(#SVGID_111_);}
	.st130{fill:url(#SVGID_112_);}
	.st131{fill:#6C6C6F;}
	.st132{fill:url(#SVGID_113_);}
	.st133{fill:url(#SVGID_114_);}
	.st134{fill:url(#SVGID_115_);}
	.st135{fill:url(#SVGID_116_);}
	.st136{opacity:0.29;fill:url(#SVGID_117_);}
	.st137{fill:url(#SVGID_118_);}
	.st138{fill:url(#SVGID_119_);}
	.st139{fill:url(#SVGID_120_);}
	.st140{clip-path:url(#SVGID_123_);fill:url(#SVGID_124_);}
	.st141{fill:none;stroke:#ABABAB;stroke-width:0.8214;stroke-miterlimit:10;}
	.st142{fill-rule:evenodd;clip-rule:evenodd;fill:#A5A5A5;}
	.st143{fill:url(#SVGID_125_);}
	.st144{fill:url(#SVGID_126_);}
	.st145{clip-path:url(#SVGID_129_);fill:url(#SVGID_130_);}
	.st146{fill:#999999;}
	.st147{display:inline;fill:none;stroke:#999999;stroke-miterlimit:10;}
</style>
<g id="Contact_Page" class="st0">
</g>
<g id="Quality_Management" class="st0">
</g>
<g id="Safety_Page" class="st0">
</g>
<g id="Projects_Page" class="st0">
</g>
<g id="Services_Page" class="st0">
</g>
<g id="About_Us_Page" class="st0">
</g>
<g id="Home_Page">
</g>
<g id="Site_Specs">
</g>
<g id="Construction_Dude" class="st0">
</g>
<g id="DeviceOverlay">
</g>
<g id="PrimarNavBar">
	<g>
		<path class="st106" d="M101,12.2c21.9,0,39.7,17.8,39.7,39.7c0,21.9-17.8,39.7-39.7,39.7S61.3,73.8,61.3,51.9
			C61.3,29.9,79.1,12.2,101,12.2L101,12.2z"/>
		<path class="st107" d="M101,12.2c21.9,0,39.7,17.8,39.7,39.7c0,21.9-17.8,39.7-39.7,39.7S61.3,73.8,61.3,51.9
			C61.3,29.9,79.1,12.2,101,12.2L101,12.2z M60.1,51.9c0-22.6,18.3-41,41-41c22.6,0,41,18.3,41,41c0,22.6-18.3,41-41,41
			C78.4,92.8,60.1,74.5,60.1,51.9L60.1,51.9z"/>
		<path class="st107" d="M2.9,48.1c-1,3.5-1.6,8.4-1.6,13.9c0,5.5,0.6,10.4,1.6,13.9c0.5,1.8,1.1,3.1,1.6,4c0.6,0.9,1,1,1.2,1
			c0.1,0,0.6-0.1,1.2-1c0.6-0.9,1.1-2.2,1.6-4c1-3.5,1.6-8.4,1.6-13.9c0-5.5-0.6-10.4-1.6-13.9c-0.5-1.8-1.1-3.1-1.6-4
			c-0.6-0.9-1-1-1.2-1c-0.1,0-0.6,0.1-1.2,1C3.9,44.9,3.4,46.3,2.9,48.1L2.9,48.1z M7.7,43.1c2.2,2.9,3.7,10.3,3.7,18.9
			S9.8,78.1,7.7,80.9l188.7,0c0.1,0,0.6-0.1,1.2-1c0.6-0.9,1.1-2.2,1.6-4c1-3.5,1.6-8.4,1.6-13.9c0-5.5-0.6-10.4-1.6-13.9
			c-0.5-1.8-1.1-3.1-1.6-4c-0.6-0.9-1-1-1.2-1H7.7L7.7,43.1z M0,62c0-11.2,2.5-20.2,5.7-20.2h190.6c3.1,0,5.7,9,5.7,20.2
			c0,11.2-2.5,20.2-5.7,20.2H5.7C2.5,82.2,0,73.2,0,62L0,62z"/>
		<path class="st13" d="M7.7,43.1c2.2,2.9,3.7,10.3,3.7,18.9S9.8,78.1,7.7,80.9l188.7,0c0.1,0,0.6-0.1,1.2-1c0.6-0.9,1.1-2.2,1.6-4
			c1-3.5,1.6-8.4,1.6-13.9c0-5.5-0.6-10.4-1.6-13.9c-0.5-1.8-1.1-3.1-1.6-4c-0.6-0.9-1-1-1.2-1H7.7L7.7,43.1z"/>
		<path class="st44" d="M23.7,53.1l0.5,0c0.3,0,1.2,0,1.2,1.3c0.2,1.4,0.3,2.9,0.4,4.5c0.1,1-0.2,1.5-1,1.5h-0.5
			C24.3,57.7,24,55.3,23.7,53.1L23.7,53.1z M23.2,72.2c0.5-2.3,0.9-5.1,1-8.3l0.8,0c3.6-0.1,5.3-1.7,5.3-5c-0.1-1.6-0.2-3.2-0.4-4.6
			c-0.3-1.9-1.3-3.8-6-3.9l-5.3,0c0.7,2.9,1.2,6.8,1.2,11c0,4.1-0.4,7.8-1.1,10.7C18.7,72.2,23.2,72.2,23.2,72.2L23.2,72.2z"/>
		<path class="st44" d="M34.9,72.2c0.6-2.5,1-5.7,1.1-9.1c0.7,0,1.7,0.1,1.3,2.4c-0.1,1.6-0.3,3.1-0.5,4.5c-0.1,1.4-0.1,1.4,0.1,2.2
			h4.2c-0.1-2.1-0.1-2.1,0-3.1c0.2-1.3,0.3-2.6,0.4-4c0.3-3.2-1.2-3.6-3.1-3.7c0,0,0,0,0-0.1c3.1-0.3,3.2-2.6,3.1-3.6
			c0-0.6-0.1-1.2-0.2-1.8c-0.3-2.5-2-3.7-5.4-3.8l-4.8,0c0.5,2.7,0.8,5.9,0.8,9.5c0,4.1-0.4,7.8-1.1,10.7H34.9L34.9,72.2z
			 M35.6,54.6l0.5,0c0.4,0,1,0,1.1,1.3c0.1,1,0.2,2,0.2,3.1c0.1,1.4-0.6,1.4-0.9,1.4l-0.5,0C36,58.4,35.8,56.4,35.6,54.6L35.6,54.6z
			"/>
		<path class="st44" d="M50.3,72.2c0.2-0.8,0.3-1.6,0.5-2.5l-3.6,0c0.3-2.1,0.5-4.5,0.6-7l3.4,0c0-0.4,0-0.8,0-1.2c0-0.7,0-1.4,0-2
			l-3.4,0c-0.1-1.7-0.2-3.3-0.4-4.8l3.6,0c-0.1-0.9-0.3-1.8-0.4-2.7h-7.7c0.5,2.7,0.8,5.9,0.8,9.5c0,4.1-0.4,7.8-1.1,10.7
			C42.6,72.2,50.3,72.2,50.3,72.2L50.3,72.2z"/>
		<path class="st44" d="M58.6,64.7c-0.1,1.4-0.2,2.8-0.4,4.1c0,1-0.9,1.6-1.3,1.1c-0.2-0.2-0.2-0.3-0.1-1.1c0.3-2.2,0.5-4.7,0.5-7.3
			c0-2-0.1-4-0.3-5.8c0-2.2,1.1-1.1,1.1-1c0.2,0.3,0.3,0.8,0.3,1c0.1,1.1,0.2,2.2,0.2,3.3h4.1c-0.1-1.4-0.2-2.7-0.3-4
			c-0.6-4.4-7.6-3.9-9.1-2.2c-0.6,0.7-0.6,1.5-0.6,2.2c0.2,2,0.4,4.1,0.4,6.4c0,2.9-0.2,5.5-0.5,7.9c-0.3,4.8,7.5,3.1,8.8,1.8
			c0.7-0.7,0.9-1.5,0.9-1.8c0.2-1.4,0.4-3,0.5-4.7L58.6,64.7L58.6,64.7z"/>
		<path class="st44" d="M67.8,72.2c0.7-2.9,1.1-6.6,1.1-10.7c0-3.5-0.3-6.8-0.8-9.5H64c0.5,2.7,0.8,5.9,0.8,9.5
			c0,4.1-0.4,7.8-1.1,10.7C63.7,72.2,67.8,72.2,67.8,72.2L67.8,72.2z"/>
		<path class="st44" d="M80.6,59.1c-0.1-1.4-0.2-2.8-0.3-4.1c-0.6-4.5-8.1-3.9-9.3-1.9c-0.4,0.6-0.4,1.3-0.4,1.9
			c0.1,0.8,0.2,1.7,0.2,2.6c0.3,2,0.6,2.7,2.4,4.5c1.7,1.6,2.5,2.5,2.9,4.5c0.5,2.1-0.4,3.9-1.2,3.2c-0.1-0.1-0.1-0.1-0.2-1.1
			c0.2-1.3,0.3-2.6,0.4-4.1l-4.1,0c-0.1,1.7-0.2,3.2-0.5,4.7c-0.3,4.8,7.5,3.1,8.8,1.8c0.7-0.7,0.8-1.4,0.9-1.8
			c0.1-0.5,0.2-1.1,0.2-1.7c0.2-3.8-0.7-5.1-3-7.2c-1.5-1.4-2-2.2-2.5-3.8c-0.7-2.5,0.4-2.6,0.9-2.1c0.2,0.2,0.4,0.7,0.4,1.1
			c0.1,1.1,0.2,2.2,0.2,3.4L80.6,59.1L80.6,59.1z"/>
		<path class="st44" d="M85.7,72.2c0.7-2.9,1.1-6.6,1.1-10.7c0-3.5-0.3-6.8-0.8-9.5h-4.1c0.5,2.7,0.8,5.9,0.8,9.5
			c0,4.1-0.4,7.8-1.1,10.7C81.6,72.2,85.7,72.2,85.7,72.2L85.7,72.2z"/>
		<path class="st44" d="M88.3,69.3c-0.3,4.7,7.1,3.4,8.8,1.8c0.7-0.6,0.8-1.4,0.9-1.8c0.3-2.3,0.5-5,0.5-7.9c0-2.3-0.1-4.4-0.4-6.4
			c-0.7-4.7-8.2-3.7-9.3-1.9c-0.4,0.6-0.4,1.4-0.4,1.9c0.2,2,0.4,4.1,0.4,6.4C88.9,64.3,88.7,67,88.3,69.3L88.3,69.3z M94,68.7
			c0,0.9-0.7,1.6-1.3,1.1c-0.2-0.1-0.2-0.1-0.2-1.1c0.3-2.2,0.5-4.7,0.5-7.3c0-2-0.1-4-0.3-5.8c0.1-1,0.1-1,0.2-1.2
			c0.2-0.1,0.6-0.2,0.9,0.1c0.2,0.2,0.3,0.7,0.3,1c0.2,1.8,0.3,3.7,0.3,5.8C94.4,64.1,94.3,66.5,94,68.7L94,68.7z"/>
		<path class="st44" d="M102.8,72.2c0.7-2.9,1.1-6.6,1.1-10.7c0-1.9-0.1-3.7-0.2-5.3l0.1-0.1c1.3,5.1,1.3,5.1,2.1,16.1h4.9
			c0.7-2.9,1.1-6.6,1.1-10.7c0-3.5-0.3-6.8-0.8-9.5h-3.2c0.5,2.7,0.8,5.9,0.8,9.5c0,1.4,0,2.8-0.1,4.1h-0.1
			C107.8,60,107,56,105.6,52l-5.7,0c0.5,2.7,0.8,5.9,0.8,9.5c0,4.1-0.4,7.8-1.1,10.7H102.8L102.8,72.2z"/>
		<path class="st44" d="M122.9,53.1l0.5,0c0.4,0,1.2,0,1.2,1.3c0.2,1.4,0.3,2.9,0.4,4.5c0.1,1.5-0.7,1.5-1,1.5h-0.5
			C123.5,57.7,123.2,55.3,122.9,53.1L122.9,53.1z M122.4,72.2c0.5-2.3,0.9-5.1,1-8.3l0.8,0c3.6-0.1,5.3-1.7,5.3-5
			c-0.1-1.6-0.2-3.2-0.4-4.6c-0.3-1.9-1.3-3.8-6-3.9l-5.3,0c0.7,2.9,1.2,6.8,1.2,11c0,4.1-0.4,7.8-1.1,10.7
			C117.9,72.2,122.4,72.2,122.4,72.2L122.4,72.2z"/>
		<path class="st44" d="M134.1,72.2c0.7-2.9,1.1-6.6,1.1-10.7c0-3.5-0.3-6.8-0.8-9.5h-4.1c0.5,2.7,0.8,5.9,0.8,9.5
			c0,4.1-0.4,7.8-1.1,10.7C130,72.2,134.1,72.2,134.1,72.2L134.1,72.2z"/>
		<path class="st44" d="M141,54.6l0.5,0c0.3,0,1.1,0,1.1,1.3c0.1,1.3,0.2,2.7,0.2,4.2c0.1,0.9-0.2,1.4-1,1.4h-0.5c0,0,0-0.1,0-0.1
			C141.4,59,141.3,56.7,141,54.6L141,54.6z M140.3,72.2c0.5-2.1,0.8-4.6,1-7.5l0.7,0c4.4-0.1,4.9-2.6,4.9-4.5c0-1.5-0.1-3-0.3-4.4
			c-0.2-1.7-1.1-3.7-5.4-3.8l-4.8,0c0.5,2.7,0.8,5.9,0.8,9.5c0,4.1-0.4,7.8-1.1,10.7H140.3L140.3,72.2z"/>
		<path class="st44" d="M154.8,72.2c0.2-0.8,0.3-1.6,0.5-2.5l-3.6,0c0.3-2.1,0.5-4.5,0.6-7l3.4,0c0-0.4,0-0.8,0-1.2c0-0.7,0-1.4,0-2
			l-3.4,0c-0.1-1.7-0.2-3.3-0.4-4.8l3.6,0c-0.1-0.9-0.3-1.8-0.4-2.7h-7.7c0.5,2.7,0.8,5.9,0.8,9.5c0,4.1-0.4,7.8-1.1,10.7
			C147.1,72.2,154.8,72.2,154.8,72.2L154.8,72.2z"/>
		<path class="st44" d="M164.3,72.2c0.2-0.8,0.3-1.6,0.5-2.5l-3.6,0c0.4-2.4,0.6-5.2,0.6-8.2c0-3.5-0.3-6.8-0.8-9.5h-4.1
			c0.5,2.7,0.8,5.9,0.8,9.5c0,4.1-0.4,7.8-1.1,10.7C156.5,72.2,164.3,72.2,164.3,72.2L164.3,72.2z"/>
		<path class="st44" d="M169.6,72.2c0.7-2.9,1.1-6.6,1.1-10.7c0-3.5-0.3-6.8-0.8-9.5h-4.1c0.5,2.7,0.8,5.9,0.8,9.5
			c0,4.1-0.4,7.8-1.1,10.7C165.5,72.2,169.6,72.2,169.6,72.2L169.6,72.2z"/>
		<path class="st44" d="M175,72.2c0.7-2.9,1.1-6.6,1.1-10.7c0-1.9-0.1-3.7-0.2-5.3l0.1-0.1c1.3,5.1,1.3,5.1,2.1,16.1h4.9
			c0.7-2.9,1.1-6.6,1.1-10.7c0-3.5-0.3-6.8-0.8-9.5h-3.2c0.5,2.7,0.8,5.9,0.8,9.5c0,1.4,0,2.8-0.1,4.1h-0.1
			c-0.5-5.6-1.3-9.6-2.8-13.6l-5.7,0c0.5,2.7,0.8,5.9,0.8,9.5c0,4.1-0.4,7.8-1.1,10.7C171.8,72.2,175,72.2,175,72.2L175,72.2z"/>
		<path class="st44" d="M192.5,72.2c0.2-0.8,0.3-1.6,0.5-2.5l-3.6,0c0.3-2.1,0.5-4.5,0.6-7l3.4,0c0-0.4,0-0.8,0-1.2c0-0.7,0-1.4,0-2
			l-3.4,0c-0.1-1.7-0.2-3.3-0.4-4.8l3.6,0c-0.1-0.9-0.3-1.8-0.4-2.7h-7.7c0.5,2.7,0.8,5.9,0.8,9.5c0,4.1-0.4,7.8-1.1,10.7H192.5
			L192.5,72.2z"/>
		<path class="st44" d="M86.1,39.2C86.1,39.2,86.1,39.2,86.1,39.2c0.2,0,0.2,0.3,0.2,0.4c0.2-0.1,0-0.2,0-0.4l14.6,0
			c0,0,0,0.1,0.1,0.1c0,0-0.1,0.1-0.1,0.2c0.1,0,0.1,0,0.1,0.1c-0.1,0.1-0.1,0.4-0.3,0.3c-0.1,0.1-0.3,0.1-0.3,0.2
			c0.1,0.1,0.2,0.1,0.3,0.1c0.3-0.2,0.6,0,0.9-0.2c0.1,0,0.2,0,0.3,0c0.1-0.1,0.5,0.1,0.3-0.2l0.1-0.1c-0.1,0-0.2,0-0.2-0.1
			c-0.1-0.1,0-0.2,0-0.2c-0.2,0-0.2-0.2-0.2-0.3l7,0c0.2,0.1,0.4,0,0.7,0l2.6,0c0,0,0,0-0.1,0l0,0.3l0.9,0v-0.1c0,0,0.1,0,0.1,0
			v-0.2h1c0.2,0.1-0.2,0.2,0,0.4c-0.1,0.2,0,0.4,0.1,0.5c0,0,0,0.1,0,0.1c0.2,0.2,0.2,0.5,0.5,0.5c0.1,0.1,0.2,0,0.2,0.2
			c0.2,0,0.3-0.1,0.5,0c0.1,0,0.2-0.1,0.2-0.2c0.3,0.1,0.1-0.3,0.4-0.4c0,0,0-0.1,0-0.1c0,0,0.1-0.1,0.2-0.1c0.1-0.3,0-0.6,0-0.9
			l0.4,0c-0.2,0.2,0.2,0.3,0.2,0.4c0.3-0.1,0.1-0.3,0.1-0.4l0.8,0c0,0.1-0.1,0.2,0.1,0.2c-0.1,0.2,0,0.6-0.1,0.8l0.1,0
			c0.1-0.1,0-0.4,0.1-0.6c0-0.2,0.1-0.3,0.1-0.5l0.6,0c0,0,0,0.1,0,0.1c0.1,0.3-0.1,0.5,0.2,0.8l0,0.3c-0.2,0-0.1,0.2-0.3,0.2
			c-0.1,0.1-0.1,0.2-0.2,0.3c0.1,0.2-0.2,0.4-0.2,0.6v0.4h-1.4c-0.1-0.3,0.3-0.6,0.1-1c0.2-0.1,0-0.4,0.1-0.5
			c-0.2-0.2,0-0.6-0.4-0.7c-0.1,0,0,0.1,0,0.2c0.1,0.2-0.3,0.2,0,0.4c-0.1,0-0.2,0.1-0.2,0.2c-0.2,0.2-0.5,0.3-0.7,0.4
			c-0.5,0.1-0.7-0.1-1.1-0.2c0-0.2-0.2-0.3-0.4-0.4c0-0.3-0.2-0.3-0.2-0.6c-0.2-0.2-0.5,0-0.8,0c-0.2,0.1-0.5-0.2-0.6,0.1
			c-0.1-0.1-0.3-0.2-0.5-0.1c-0.1,0-0.2,0-0.4,0c-0.1,0-0.5-0.1-0.5,0.2c0,0.1,0.2,0.1,0,0.2c0.1,0.2,0,0.4,0.1,0.7l-0.1,0.1
			c0.4,0.2-0.2,0.3,0,0.5c-0.3,0,0,0.3-0.3,0.3c0,0.1,0.1,0.1,0.1,0.2h-3.1c0.1,0,0.3,0,0.5-0.1c0.2,0.1,0.5,0.1,0.7,0
			c0.2-0.1,0.3-0.1,0.5-0.1c-0.2-0.2,0.2-0.3,0.1-0.5l0.1-0.1c-0.1-0.1-0.2-0.2-0.1-0.3c-0.1-0.1,0-0.2,0-0.3l-0.2-0.2
			c0.3-0.1-0.2-0.2,0-0.3c-0.2-0.2-0.2-0.5-0.5-0.5c-0.3,0.1-0.5-0.1-0.7,0.2c-1.1,0.1-2.1-0.1-3,0.3c-0.4-0.1-1,0-1.4,0
			c-0.7,0.1-1.3,0.2-2,0.2c-0.7,0.1-1.1,0.1-1.8,0.2c-0.2,0.2-0.5,0.2-0.8,0.2c-0.1,0.1,0,0.2,0.1,0.3c0.2,0,0.4,0.1,0.6,0.2
			c0.3,0.1,0.5,0.3,0.7,0.5h0.2c0,0.5-0.6,0.4-1.1,0.4c0.1,0,0.1-0.1,0.2-0.1c0-0.2,0.2-0.1,0.2-0.2c-0.1-0.2-0.2,0-0.3-0.1
			c-0.1-0.1-0.1-0.2-0.3-0.3C99.2,41.5,99.2,41,99,41c-0.9,0-1.9,0-2.7,0.1c-0.2,0.1-0.1,0.5-0.4,0.5c0,0.3-0.1,0.3-0.3,0.3
			c-0.5,0-1.2,0.2-1.7-0.2c0,0,0-0.1,0-0.1c0-0.2-0.2,0-0.3-0.2c0,0,0.1-0.2,0-0.2c-0.2,0-0.4,0.1-0.5,0.3c0.1,0.1,0,0.3,0.2,0.3
			v0.1h-2.3c0-0.1-0.1-0.2-0.2-0.3c-0.6,0-1,0-1.5,0.2c-0.2-0.1-0.5,0.1-0.7-0.1c-0.2,0.3-0.7-0.2-0.7,0.3c-0.4-0.1-0.9,0.2-1.1-0.3
			c-0.2,0.2-0.4-0.1-0.5,0.1c-0.2-0.2-0.6,0-0.7-0.3c-0.2-0.1-0.3-0.5-0.6-0.3c-0.1,0-0.1,0.1-0.1,0.2c0.1,0.1,0,0.3,0.2,0.4
			c-0.1,0.1,0,0.2,0.1,0.2h-2.7c0.3-0.2,1,0.2,1.1-0.2c-0.1,0.1-0.1-0.1-0.3-0.2c-0.5,0.2-1.1,0-1.6,0.2c-0.2,0-0.4-0.2-0.5,0
			c-0.1,0.1,0.1,0.2,0.2,0.2c0.1-0.2,0.3,0,0.4,0h0.1l0.4,0l0.1,0h-0.5c0,0-0.1,0-0.1,0h-1.1c0,0,0-0.1,0-0.1
			c-0.1-0.1-0.1-0.1,0-0.2l-0.2-0.3c0,0,0.1,0,0.1,0c-0.3-0.1,0.1-0.3-0.1-0.4c0-0.1,0.1-0.1,0.1-0.2l-0.2-0.2
			c0.1-0.2,0-0.4,0.2-0.6l-0.1-0.1c0-0.1,0.2-0.1,0.2-0.2l-0.1-0.1c0.2,0,0.2-0.3,0.2-0.3c0.1,0,0.1,0,0.1-0.1L86.1,39.2L86.1,39.2z
			 M115.7,39.2c0,0,0,0.1,0,0.2l0.2,0.1c-0.1,0.1-0.1,0.2,0,0.3c-0.3,0,0,0.2-0.2,0.3c-0.2,0.2-0.3,0.2-0.6,0.2
			c-0.1,0-0.3,0-0.4-0.1c0.1-0.1-0.1-0.2-0.2-0.3c0-0.1-0.2-0.3,0-0.5c0.1-0.1,0.1-0.2,0.2-0.3L115.7,39.2L115.7,39.2z M128.4,39.2
			l0,0.5c0.2,0.1-0.1,0.3,0.1,0.4c-0.1,0.1,0,0.2,0.1,0.3c-0.2,0.1,0,0.3-0.1,0.4c0.2,0.3,0,0.8,0.1,1.2h-0.3c0.1-0.1,0-0.2,0-0.3
			l-0.1-0.1c0.3-0.1-0.2-0.3,0.1-0.4c0-0.2-0.3-0.4,0-0.6c0,0-0.1-0.1-0.1-0.2c0.2-0.1,0-0.2,0-0.3c0.2-0.1-0.1-0.3,0-0.5l0.1-0.2
			l-0.2-0.2l0.1,0c0-0.1,0-0.1,0-0.1L128.4,39.2L128.4,39.2z M83.1,40.9c-0.6-0.2-1.4,0.1-2.1,0c-0.2,0-0.1,0.2-0.2,0.3
			c0.6,0,1.4-0.1,2,0C82.9,41.2,83.1,41.1,83.1,40.9L83.1,40.9z M90.3,40.7c-0.7,0.1-1.2,0-1.8,0.1c-0.3-0.1-0.7,0.1-0.9,0
			c0,0.2-0.2-0.1-0.2,0.1c0.2,0.1-0.1,0.2,0.1,0.3c1-0.1,1.9-0.1,2.8-0.2C90.6,41,90.3,40.9,90.3,40.7L90.3,40.7z M85.9,40.5
			c-0.2-0.6-0.3,0.3-0.6,0.1c-0.1,0.1-0.3,0-0.3,0.2c0.3,0.1,0.7,0,0.9,0c0.2,0.1,0.3-0.1,0.5,0c-0.1-0.2,0.2-0.5-0.1-0.5
			C86.3,40.5,86.1,40.5,85.9,40.5L85.9,40.5z M83,40.1c-0.8,0-1.4,0-2.1,0c0.1,0.2-0.2,0.1-0.1,0.3c0.2,0,0.4,0.1,0.7,0
			c0.2,0,0.4,0.1,0.6-0.1c0,0.1,0.1,0,0.2,0c0.2,0.1,0.6-0.1,0.8,0C83.2,40.4,83,40.2,83,40.1L83,40.1z M90.4,39.8
			c0.1-0.3-0.3-0.2-0.5-0.1c-0.6-0.3-1,0.2-1.5,0c-0.3,0-0.6-0.1-0.8,0.1l-0.1,0.2c1,0.1,1.8,0,2.9,0C90.3,39.9,90.3,39.9,90.4,39.8
			L90.4,39.8z M95.4,40c0-0.2-0.2-0.2-0.3-0.3c-0.2,0-0.5-0.3-0.7,0c-0.1,0-0.2,0-0.2,0.1c0.1,0.1,0.2,0,0.2,0
			c0.3-0.2,0.4,0.2,0.7,0.3c-0.1,0.1-0.2,0.2-0.3,0.3c-0.2,0-0.5,0.1-0.6-0.2c0.1-0.1,0-0.2-0.1-0.3c0,0-0.1,0-0.2,0
			c0.3,0.2-0.2,0.3,0,0.5c-0.1,0.1-0.2,0.1-0.2,0.2c0,0,0,0,0-0.1h-0.1c-0.1,0.1-0.5,0.1-0.3,0.3c0.8,0.2,1.6-0.2,2.5,0l0.2-0.2
			c0.6,0,1.2-0.1,1.8-0.1c0.3,0,0.7,0.1,0.8-0.2c-0.1-0.1-0.3,0-0.3-0.1c-0.7,0.1-1.3,0.1-2.1,0.2c-0.1-0.4-0.5,0-0.5-0.4L95.4,40
			L95.4,40z M110.5,39.8l-0.3-0.3c-0.2,0-0.5-0.2-0.6,0.1c0.4,0.1,0.2,0.6,0.5,0.7c-0.3,0.2,0.1,0.4,0.1,0.6
			c-0.1,0.2-0.1,0.5-0.3,0.7c0,0,0,0.1,0,0.1c0.1,0,0.3,0.1,0.4,0c0.2-0.1,0.4-0.2,0.4-0.5c0.1-0.2,0-0.5,0.1-0.6c0,0,0,0-0.1,0
			c0-0.1-0.1-0.2,0-0.3C110.7,40,110.5,40,110.5,39.8L110.5,39.8z M83.4,39.3c-0.2,0-0.4-0.1-0.6,0c-0.1,0.1-0.4,0.1-0.6,0
			c-0.4,0.2-0.8-0.1-1,0.2c0,0,0,0,0,0.1l0.6,0l0.1-0.1c0.5,0.1,1,0,1.5,0C83.2,39.5,83.4,39.4,83.4,39.3L83.4,39.3z M99.6,41.9
			C99.6,41.9,99.5,41.9,99.6,41.9C99.5,41.9,99.5,41.9,99.6,41.9C99.6,41.9,99.6,41.9,99.6,41.9L99.6,41.9z"/>
		<path class="st44" d="M86.9,36.2c0.5,0.1,1.1-0.1,1.7,0c0,0,0,0,0,0l0.4,0c0.1,0,0.1,0,0.2,0l0.1,0c0.2,0.1,0.4,0.1,0.6,0l1.6,0
			c0.1,0,0.1,0.1,0.1,0.1c0.2,0.1,0.3,0,0.5-0.1l1,0c0,0-0.1,0-0.1,0.1c-0.1,0.2-0.4,0.2-0.5,0.4l0.2,0c0-0.2,0.3-0.1,0.3-0.3
			c0.2,0,0.4-0.2,0.6-0.1c0,0,0.1-0.1,0.1-0.1l21.3,0c0.3,0.1,0.6,0.1,0.8,0.4c0.1,0,0.3,0.1,0.4,0c0.1-0.3-0.5,0-0.3-0.3
			c0,0,0,0-0.1-0.1l1.5,0c0,0,0.1,0.1,0.1,0.1c0.1,0.3,0.5,0.1,0.7,0.3c0,0.2,0.3,0.1,0.2,0.3l-0.3,0.1c0.2,0.3,0,0.7,0.3,0.8
			c0.2,0.1,0.1,0.3,0.3,0.3c0,0,0,0.1,0,0.1c0,0,0.1,0.1,0.1,0.1l-0.2,0.1c0.1,0.2-0.1,0.3,0.1,0.5c0,0-0.1,0.1-0.1,0.1l-0.6,0
			c0-0.1,0-0.2-0.2-0.3l0.1-0.1c-0.2-0.1,0-0.2,0-0.3h-0.1c0-0.1-0.1-0.3,0-0.4h-0.1c-0.2-0.1-0.1-0.2-0.1-0.3
			c-0.2,0-0.1-0.2-0.2-0.3c-0.1-0.1-0.4-0.3-0.3-0.5h-0.1c-0.2,0.1-0.2-0.1-0.2-0.2c-0.1-0.2-0.2,0-0.2,0l0,0.1
			c0.4,0,0.2,0.4,0.5,0.6c0,0,0,0,0.1,0c0.1,0,0.1,0.1,0.1,0.2c0.2,0.2,0.3,0.5,0.4,0.7c-0.1,0.2,0,0.4,0.1,0.6
			c0.2,0.1,0.1,0.2,0.1,0.3l-0.8,0c0,0,0,0,0.1-0.1l-0.1-0.1c0.2-0.2-0.2-0.1-0.1-0.3c0,0,0,0,0.1,0c0-0.3-0.1-0.4-0.3-0.5
			c-0.1-0.1,0.1-0.2,0-0.2c-0.1-0.1-0.2,0.1-0.3-0.1c0-0.2-0.3-0.3-0.4-0.5c-0.2-0.2-0.6-0.3-0.8-0.4c-0.2,0.1-0.5-0.1-0.7-0.1
			c-0.1,0.3-0.4,0.1-0.5,0.3l-0.4,0.3c-0.4,0-0.3,0.5-0.7,0.7c0.1,0.1,0.1,0.2,0,0.2c-0.1,0.2,0.1,0.4-0.2,0.5
			c0,0.1,0.1,0.1,0.1,0.2c0,0,0,0-0.1,0.1l-2.6,0c0.2,0,0.4-0.1,0.5-0.1c-0.1-0.2,0.1-0.5,0-0.6c0.3-0.2-0.1-0.3,0-0.5
			c0.1-0.2,0-0.4,0.2-0.5c-0.2,0-0.3-0.2-0.4-0.3c0-0.1,0-0.2,0.1-0.2c0,0,0,0-0.1,0c-0.1-0.1,0.1-0.3-0.2-0.3c0,0.2-0.4,0-0.3,0.2
			c-0.1,0.1-0.1,0.4,0,0.6c-0.1,0.4-0.4-0.1-0.6,0.1c0.1,0.5,0,0.9-0.1,1.5c0.1,0.1,0.1,0.1,0.2,0.1l-7,0c0-0.1,0-0.2,0-0.3
			c0-0.1,0.2,0,0.2-0.2h-0.1c0-0.1-0.2-0.1-0.1-0.2c0,0,0.1,0,0.1,0c0-0.3-0.2-0.1-0.4-0.3c0.1-0.1,0-0.1,0-0.2
			c0.1-0.1,0.2-0.1,0.3-0.1c0.1-0.3-0.3-0.2-0.4-0.4l0.1-0.1c0.4,0.1,0-0.3,0.2-0.4c-0.1-0.2-0.4-0.2-0.5,0c0.1,0.2-0.1,0.3-0.1,0.5
			c-0.1,0.1-0.3,0.2-0.5,0.2l-0.1,0.2c0,0.5,0.2,0.7,0.1,1.1c0.1,0,0,0.1,0,0.2l-14.6,0c0,0,0-0.1,0-0.1c0.3-0.2-0.1-0.3,0.1-0.5
			c-0.2,0-0.5-0.2-0.7,0.1c-0.3,0.2,0.2,0.3,0.1,0.5c0.1,0.1,0.2,0,0.3,0.1l-5.3,0c0,0,0,0,0.1-0.1l0-0.2c0.1-0.1,0.2,0,0.3-0.1
			c0,0,0-0.1,0-0.1l0.3-0.2c0,0,0,0-0.1,0c0-0.1,0.3-0.1,0.3-0.3c0.4,0,0.3-0.5,0.7-0.4c0.3-0.4,0.7-0.2,1-0.5
			c0.2-0.3,0.6-0.1,0.8-0.3c0,0.1,0.1,0,0.2,0c0-0.1,0.3-0.2,0.1-0.3c0.2-0.2,0.4-0.1,0.6-0.3c0.2,0.1,0.6,0,0.8,0.2
			c0,0,0.1-0.1,0.1-0.2c0-0.1-0.1-0.1-0.2-0.1c0,0,0,0,0-0.1L86.9,36.2L86.9,36.2z M93.6,36.2c-0.1,0-0.2,0-0.2,0L93.6,36.2
			L93.6,36.2z M128.4,36.2c0,0.2-0.2,0.5,0,0.6c0.1,0.1-0.1,0.4,0,0.5c0,0.1,0,0.2,0,0.2c0.2,0.1-0.2,0.4,0.1,0.4
			c-0.1,0.1-0.1,0.1-0.1,0.2c0,0.1,0,0.2,0,0.2c0,0.1,0,0.1,0,0.2c0,0.1,0,0.1,0,0.1l0,0.1c-0.1,0.1,0,0.1,0,0.2l0,0.2h-0.3
			c0-0.1,0.1-0.3,0-0.4c0-0.1,0-0.1,0-0.1l-0.1-0.2c0.1-0.1,0-0.2,0-0.4c0-0.1,0-0.1,0.1-0.1c-0.1-0.1,0.1-0.2-0.1-0.3
			c0-0.1,0.2-0.1,0.1-0.2c-0.3-0.1,0.2-0.3-0.1-0.3c0-0.1,0.1-0.1,0.2-0.2l-0.2-0.1c0.1,0,0.1-0.1,0.1-0.2c0-0.1-0.1,0-0.1-0.1v-0.1
			c0,0,0.1,0,0.1,0c0-0.1-0.1-0.1-0.1-0.2c0.1,0,0.1-0.1,0.1-0.2L128.4,36.2L128.4,36.2z M113.3,39.2v-0.3c0.2-0.1,0.2-0.4,0.5-0.5
			c0.3-0.1,0.6-0.1,0.8-0.3c0.1,0,0.2,0,0.3,0c0.3-0.3,0.5,0.4,0.9,0c0.1,0.3,0.5,0.3,0.5,0.5c0,0.1,0.2,0.3,0.1,0.5l0.1,0
			c0,0,0.1,0.1,0.1,0.1c0,0,0,0,0,0l-0.4,0c0-0.1-0.1-0.2-0.1-0.3c-0.3,0-0.1-0.5-0.4-0.3c-0.1-0.2-0.5-0.3-0.6-0.1
			c-0.4-0.1-0.3,0.3-0.7,0.3l0.1,0.1l-0.2,0.2c0,0,0,0,0,0L113.3,39.2L113.3,39.2z M114.8,39.2c0,0,0-0.1,0-0.1
			c0-0.1,0.2-0.1,0.3-0.2c0.2,0.1,0.5,0.1,0.6,0.3L114.8,39.2L114.8,39.2z M90.9,38.7c-0.2-0.2-0.4,0-0.6,0c-0.2-0.2-0.5,0.1-0.7,0
			c-0.3,0.1-0.5,0-0.7,0c-0.1,0.1-0.2,0-0.4,0c-0.3,0.1-0.7,0-0.8,0.3c0.2,0.1,0.4,0.1,0.7,0c0.8-0.1,1.6,0.1,2.3-0.2
			c-0.1,0,0-0.1,0-0.2C90.7,38.7,90.8,38.7,90.9,38.7L90.9,38.7z M84,38.6c0-0.2-0.3-0.1-0.5-0.2c-0.5,0-1,0.1-1.5,0.1
			c-0.1,0-0.2,0.1-0.3,0.1c0,0.1,0,0.1,0.1,0.2c0.2-0.1,0.5,0,0.7-0.1c0.3,0.1,0.6-0.1,0.8,0.1C83.4,38.7,83.8,38.9,84,38.6L84,38.6
			z M83.9,38c-0.2,0-0.5-0.1-0.7,0.1c-0.3-0.1-0.6-0.1-1,0c0,0.2,0.2,0.1,0.3,0.1c0.4,0.1,0.8-0.2,1.1,0
			C83.7,38.1,83.9,38.2,83.9,38L83.9,38z M91.6,37.7l-1,0c-0.6,0.2-1.3,0-1.9,0.2c0,0.2-0.1,0.2-0.2,0.3c0.1,0,0.2-0.1,0.3,0
			c0.6,0,1.2-0.1,1.8-0.1c0.2,0.1,0.4-0.1,0.6,0c0.1-0.1,0.4,0,0.3-0.3C91.4,37.7,91.6,37.9,91.6,37.7L91.6,37.7z M94.8,37.7
			c0,0,0-0.1,0-0.1c-0.4,0-0.9,0.1-1.2,0.3c0.1,0.1,0.1,0.2,0.3,0.2c0,0.3,0.4,0.3,0.5,0.6l0.1-0.1l0.2,0.3c0-0.1,0.1-0.1,0.2-0.1
			v-0.1c-0.3-0.2,0.2-0.5-0.1-0.8l0.1-0.1c0-0.1-0.2-0.1-0.2-0.2C94.7,37.7,94.7,37.7,94.8,37.7L94.8,37.7z M94.3,37.2
			c-0.1,0-0.3,0-0.5,0c-0.1,0-0.3,0.1-0.4,0.1c-0.2,0.1-0.5,0.2-0.6,0.3c0.2,0,0.3-0.1,0.3-0.1C93.4,37.4,93.9,37.3,94.3,37.2
			L94.3,37.2z M87.7,37.2c-0.1,0.1-0.2,0-0.3,0.1c-0.3-0.2-0.7-0.1-1-0.1c0.1,0.2,0.4,0,0.5,0.2c0.2,0.1,0.4-0.1,0.5,0
			c0.1-0.1,0.4,0,0.6-0.1L87.7,37.2L87.7,37.2z M91.2,37.3c0.3-0.5-0.3-0.1-0.5-0.3c-0.6,0.2-1-0.1-1.6,0.3c0.2,0.1,0.6-0.1,0.8,0
			c0.3-0.1,0.7,0.2,0.8-0.2C90.8,37.3,91,37.3,91.2,37.3L91.2,37.3z"/>
		<path class="st44" d="M85.5,33.2c-0.1,0.2,0.1,0.4,0,0.7c0.2,0.3,0,0.7-0.1,0.9c0,0,0.1,0,0.1,0c0,0.1,0,0.2-0.1,0.2
			c0.2,0.1,0,0.3,0.2,0.4c0,0,0.1,0,0.1,0c-0.1-0.1,0.1-0.2,0.1-0.3l-0.1-0.1c0-0.2,0.1-0.1,0.2-0.2c0-0.1,0-0.2,0-0.2
			c0.2-0.1,0.2-0.2,0.3-0.3c0-0.2,0.3-0.4,0.6-0.3c0.3,0,0.2-0.4,0.4-0.4c-0.3,0,0-0.2,0-0.3c-0.1,0-0.1-0.1-0.1-0.1l0.3,0
			c0,0.1,0,0.2,0,0.3c0,0.1-0.2,0-0.2,0.1c0.2,0,0,0.2,0.1,0.3c0,0.2-0.1,0.4,0,0.7c-0.3,0.2,0.2,0.2,0,0.4c0.2,0.1,0.1,0.5,0.3,0.6
			c0.7-0.1,1.4,0.3,2.1,0.2c0.4,0.1,1.1,0,1.6,0c0.2-0.1,0.3-0.2,0.5-0.2c0-0.2,0.2-0.3,0.2-0.5c0.1-0.2,0.5-0.1,0.7-0.2
			c0.3,0.3,0.6-0.1,0.8,0.2c0-0.1,0-0.1,0-0.1c0.1-0.1,0.2-0.1,0.2-0.2c0.3,0.2,0.6-0.1,0.9,0.1c0.3,0,0.6,0.1,0.8-0.2
			c-0.1,0.1-0.3-0.1-0.5,0c-0.1-0.1-0.1-0.4-0.3-0.3c0-0.1,0-0.1,0.1-0.2l-0.1-0.2c0.2-0.1,0-0.3,0.2-0.5l-0.2-0.1l0.2-0.2
			c-0.1,0-0.1-0.1-0.1-0.2l0.3,0c0,0.1,0.1,0.3,0,0.3l0.1,0.1c0.1,0.2-0.1,0.5,0.1,0.6c0,0.1,0,0.1,0,0.2c0.5-0.1,0.9,0,1.4,0
			c0.3,0.2,0.7,0,1,0c0.1,0.2,0.4,0,0.5,0.2l-0.1,0.1c-0.2-0.1-0.3,0.2-0.4,0c-0.1,0,0,0.1,0,0.2c0.1,0.1,0.2,0.1,0.3,0.1
			c0.4-0.2,0.6,0.2,1,0.2c0.1-0.1,0.1,0,0.2-0.1c-0.2-0.3-0.5-0.2-0.7-0.2l-0.1-0.1c0.2-0.2,0.5,0,0.7-0.2c0.4-0.2,1-0.1,1.3,0
			c0.2-0.2,0.5-0.2,0.6-0.5c0.3,0,0.1-0.4,0.4-0.3c0.1,0,0.1,0,0.1-0.2c0-0.2,0.2-0.2,0.3-0.2c-0.1,0-0.1-0.1-0.1-0.1l3.2,0
			c-0.1,0.1-0.2,0.2-0.3,0.3c-0.3,0.2-0.4,0.5-0.7,0.6l-0.2,0.3c0.2,0.1,0.4-0.1,0.5,0c0.1-0.2,0.2,0,0.3,0c0.3-0.2,0.8,0,1.1-0.1
			c0-0.1,0.2-0.2,0.4-0.3c-0.1-0.3,0.4-0.1,0.3-0.5c0.3,0.1,0.2-0.2,0.3-0.3l1,0c-0.1,0.1-0.3,0-0.3,0.2c-0.4,0.2-0.6,0.5-0.8,0.8
			h0.3c0.3,0.1,0.6,0.1,0.8,0c0.4,0.4,0.9,0,1.3,0.1c0.1,0,0.2,0,0.3,0.1c0.3,0.1,0.4-0.1,0.6-0.2v-0.1c-0.1-0.1,0.1-0.2,0.2-0.2
			c-0.2-0.4,0.5-0.2,0.3-0.5c0-0.1,0.1-0.1,0.2-0.1c-0.1,0-0.3,0-0.5-0.1l4,0c-0.2,0.2-0.5-0.1-0.7,0.1c0,0,0.1,0,0.1,0
			c0,0.1-0.1,0.2-0.1,0.2c0.3,0.1-0.2,0.3,0.2,0.4c-0.2,0.2,0.2,0.3,0.1,0.5l0.2,0.1l-0.2,0.2c0,0.1,0.1,0.1,0.2,0.1l0,0.1
			c0.2,0.2,0.4-0.1,0.6,0c0.1,0.1,0.2,0,0.4,0.1c0.3,0.1,0.5,0,0.8,0.2v0.2c0.2,0.2,0.4-0.1,0.6,0c0.4-0.2,0.7,0.3,1,0.2
			c0,0.1-0.1,0.1-0.1,0.2c-0.1,0.4,0.2,0.4,0.4,0.6l-1.5,0c-0.1-0.1-0.2-0.1-0.3-0.1c-0.3-0.4-0.7-0.1-1.1-0.3c-0.2,0-0.3-0.1-0.5,0
			c-0.5-0.1-0.8,0-1.3-0.1c-0.2,0.1-0.4,0.1-0.5,0c-0.1,0.1-0.3,0-0.4,0.2c-0.1-0.2-0.3,0-0.5,0c-0.2-0.3-0.6,0-0.8-0.1
			c-0.5,0-1.1-0.1-1.3,0.2l0.3,0l0.1,0c0.1,0,0.1,0.1,0.2,0.1l1.3,0c0.3-0.2,0.6,0.2,0.9,0c0.4,0.1,0.7-0.1,1.1,0
			c0.2,0,0.4-0.1,0.6,0c0.1,0,0.2,0,0.3,0c0.2,0.1,0.6-0.1,0.9,0c0.1,0,0.2,0.1,0.3,0.1l-21.3,0c0.2-0.1,0.4,0,0.5-0.2
			c-0.2-0.2-0.3,0.2-0.5,0c0,0.1-0.1,0.1-0.1,0.1l-0.2,0c-0.1,0-0.2,0-0.3,0l-1,0c0.1,0,0.1-0.1,0.2-0.1c0.2,0,0.5,0,0.7-0.2
			c-0.1-0.1-0.2-0.2-0.3-0.1c0-0.1-0.1,0-0.2,0C92,35.4,91.6,36,91.1,36c0.2,0,0.3,0.1,0.4,0.1l-1.6,0c0,0,0,0,0.1,0
			c-0.2-0.2-0.5,0-0.7-0.2c-0.1,0.1-0.1,0-0.2,0c-0.3,0-0.5,0-0.8,0.1c-0.3-0.2-0.5,0.1-0.9,0c-0.1-0.2-0.5-0.1-0.3-0.3
			c-0.2-0.1,0.1-0.3-0.1-0.5c0.3-0.1-0.1-0.4,0.2-0.5c0-0.1-0.1-0.1-0.2-0.1l0.1-0.1l-0.2-0.2l-0.2,0.2c-0.2-0.1-0.3,0.2-0.5,0.2
			c0,0.1-0.2,0.3-0.2,0.4c0.1,0.2,0,0.6-0.1,0.7c0.1,0,0.2,0,0.3,0c0.2,0.2,0.4,0.3,0.6,0.3l-1.3,0c0.1-0.2-0.3-0.2-0.2-0.4
			l-0.1-0.1l0.1-0.2c-0.1,0-0.1-0.1-0.1-0.2c0,0,0.1,0,0.1,0c0-0.1-0.2-0.1-0.2-0.2l0.1-0.1c-0.2-0.2,0-0.5-0.2-0.7
			c0.1,0,0.3-0.1,0.2-0.2c0,0,0-0.1,0-0.1l0.1-0.1c-0.2-0.1,0.1-0.3-0.1-0.4c0-0.1,0-0.1,0-0.2L85.5,33.2L85.5,33.2z M86.7,33.2
			c0,0.1,0,0.1-0.1,0.1c-0.1,0-0.2,0-0.2,0.2c-0.1,0-0.2,0.2-0.3,0.1c0-0.1-0.1-0.2-0.1-0.3L86.7,33.2L86.7,33.2z M114.4,33.2
			c-0.1,0-0.2,0-0.3,0L114.4,33.2L114.4,33.2z M128.2,33.2c0,0.2,0,0.3,0.1,0.5c-0.3,0.1,0.2,0.3-0.1,0.4c0.1,0.1,0.2,0.2,0.1,0.2
			c0,0-0.1,0-0.1,0c0.2,0.1-0.1,0.3,0.2,0.5c-0.2,0.1,0.2,0.3-0.1,0.4c0.1,0,0.1,0.1,0.1,0.2l-0.1,0.1c0,0,0.1,0.1,0.1,0.1l0.1,0.1
			c0,0-0.1,0-0.1,0c0.1,0.2,0,0.3,0,0.4h0.1c0,0,0,0,0,0.1l-0.4,0c-0.1-0.1-0.2-0.2,0-0.3c0,0,0,0-0.1,0c0.1-0.1,0.1-0.2,0-0.3
			c0-0.1,0.2-0.1,0.1-0.2c0,0-0.1-0.1-0.1-0.1c0.3-0.1-0.2-0.3,0.1-0.4l-0.2-0.2c0,0,0.1,0,0.1,0c0-0.2-0.2-0.2,0-0.3l-0.2-0.2
			c0-0.1,0.2-0.1,0.1-0.2c0-0.1-0.1,0-0.1-0.1l0.1-0.1c-0.3-0.1,0.2-0.2-0.1-0.4c0,0,0,0,0,0H128.2L128.2,33.2z M88.6,36.2
			c0-0.1,0.1-0.1,0.2-0.1c0,0,0.1,0,0.2,0.1L88.6,36.2L88.6,36.2z M89.1,36.2C89.2,36.2,89.2,36.1,89.1,36.2c0.1,0,0.1,0,0.1,0
			L89.1,36.2L89.1,36.2z M98.4,35.9c-0.7-0.1-1.5,0-2.2,0v0.1c0.1,0,0.1,0,0.1,0.1c0.1-0.1,0.2-0.1,0.3-0.1c0.7-0.1,1.2,0.1,1.9,0
			c0.1,0,0.1-0.1,0.1-0.2C98.5,35.8,98.4,35.9,98.4,35.9L98.4,35.9z M96.1,35.9L96,35.8c-0.3,0-0.7,0.1-1.1,0.1
			c-0.2,0-0.4-0.1-0.6,0.1c0.2,0.1,0.3-0.1,0.5,0c0.1-0.1,0.3-0.1,0.4,0C95.5,36.1,95.8,36.1,96.1,35.9L96.1,35.9z M104.1,35.8
			c-0.2-0.2-0.7,0.2-0.9,0c-0.5,0.3-1.1,0-1.4,0.2c0.1,0.1,0.4,0.1,0.5,0c0-0.3,0.2,0.1,0.3-0.1l0.1,0.1c0.2,0,0.3-0.1,0.5,0
			c0.1-0.1,0.4,0.2,0.7,0.1V36C103.9,35.9,104,35.9,104.1,35.8L104.1,35.8z M108.3,35.8l-0.1-0.1c-0.2,0.3-0.5,0-0.7,0.2
			c-0.3,0-0.5-0.1-0.8,0c-0.3-0.1-0.7-0.2-1-0.1c-0.2,0.1-0.2,0-0.4,0c-0.1,0.2-0.4-0.1-0.4,0.2c0.1,0.1,0.3,0,0.4-0.1
			c0.2,0.2,0.6,0.2,0.8,0.2l0.1-0.1c0.1,0.1,0.1,0,0.2,0c0.4,0.3,0.7-0.2,1,0.2C107.7,36.1,108.2,36.1,108.3,35.8L108.3,35.8z
			 M94.9,35.1l-0.6,0c-0.1-0.1-0.3,0-0.3,0l0.1,0.2c0.3-0.1,0.6,0,0.9,0.2c0.2-0.1,0.4,0.1,0.4-0.2h-0.1c0,0,0-0.1,0-0.1
			C95,35.3,94.9,35.2,94.9,35.1L94.9,35.1z M112.9,33.5c0.2-0.1-0.1-0.3-0.2-0.2c-0.3-0.2-0.7,0-1,0c-0.1,0-0.1-0.1-0.2-0.1
			c-0.1,0.1-0.4,0.1-0.3,0.3c-0.2,0-0.1,0.2-0.3,0.3c-0.1,0.2-0.4,0.3-0.4,0.6c-0.1,0.2-0.3,0.2-0.3,0.4c0.2,0,0.6,0,0.6-0.1
			l-0.2,0.1c-0.1,0,0-0.1-0.1-0.2c0.2-0.2,0.4,0,0.6,0c0.2-0.1,0.5,0.2,0.7,0.1c0.3-0.2,0.4,0.2,0.7,0c0.3,0.1,0.7,0.2,1,0
			c0-0.1,0-0.2,0-0.3c0,0-0.1,0-0.1,0c0.1-0.1,0-0.2-0.1-0.2c0.1-0.1,0-0.2,0-0.3c-0.1,0-0.1-0.1-0.2-0.2
			C113.1,33.7,112.9,33.6,112.9,33.5L112.9,33.5z"/>
		<path class="st44" d="M85.6,30.2c0,0.1-0.1,0.1-0.1,0.2l0.3,0c0-0.1,0.1-0.2,0.1-0.2l0.3,0c0,0.2,0,0.3,0,0.5
			c0.2,0.2-0.1,0.6,0,0.9c0,0.1,0,0.2-0.1,0.3c0,0,0.1,0,0.1,0c0,0.1,0,0.1-0.1,0.2l0.1,0.1c-0.1,0.2,0,0.4-0.2,0.5h0.2
			c0.3-0.2,0.5-0.4,0.8-0.6L87,32.1c0-0.1,0.1-0.4,0.3-0.4c0-0.1-0.1-0.1-0.1-0.2l0.2-0.2c0-0.1-0.1-0.1-0.2-0.1l0.2-0.2
			c-0.3-0.1,0.2-0.3-0.1-0.4l0.1-0.1c-0.1-0.1-0.1-0.2,0-0.3l0.3,0c0,0.1,0,0.2,0,0.3c-0.1,0.1-0.2,0.1-0.1,0.2
			c-0.2,0.2,0.2,0.3,0,0.4c0,0,0,0,0.1,0c-0.1,0.1,0.2,0.4-0.1,0.5c0.1,0.2,0,0.5,0,0.8c-0.2,0.2-0.1,0.5-0.1,0.7l-0.3,0
			c0-0.1,0.1-0.1-0.1-0.2c-0.1-0.1,0.1-0.2,0.1-0.2c0-0.1,0-0.2-0.1-0.2C87,32.8,86.9,33,86.7,33c0,0,0,0.1,0,0.2l-0.7,0
			c0,0,0-0.1,0.1-0.1c-0.2-0.1,0.3-0.3-0.1-0.4c0.3-0.1-0.1-0.3,0.1-0.5c-0.3,0,0-0.2-0.1-0.4c0-0.1,0.2-0.2,0-0.3c0,0,0,0,0-0.1
			c-0.2,0-0.3,0-0.5,0.2l0,0.1c0,0.2,0,0.3,0,0.5c0,0.2,0.1,0.4-0.2,0.5c0.2,0.1-0.1,0.3,0.2,0.4c0,0,0,0,0,0.1l-0.3,0
			c0-0.2,0-0.3-0.1-0.5c0.1,0,0.1,0,0.1-0.1c0,0,0-0.1,0-0.1l-0.1-0.3c0.4,0,0-0.4,0.2-0.5l-0.1-0.1c0.1,0,0-0.1,0-0.2
			c0-0.1-0.2,0-0.3-0.1c0.4,0-0.1-0.3,0.2-0.5c-0.1,0-0.1-0.1-0.1-0.2c0.1-0.2,0.1-0.3,0.1-0.4L85.6,30.2L85.6,30.2z M101.1,30.2
			c0,0.1,0,0.1,0,0.2c0,0.2,0.1,0.4,0,0.6c0,0.1,0.1,0.1,0.2,0.1c0.1-0.2-0.1-0.4,0.1-0.6c0-0.1-0.2-0.1-0.1-0.2c0,0,0,0,0,0l2.4,0
			c-0.1,0.3,0.1,0.7-0.1,0.9c0.1,0.2-0.1,0.3,0.1,0.4c0.2,0,0-0.3,0.2-0.3v-0.1c-0.2-0.1,0.1-0.2,0.1-0.3c0,0-0.1,0-0.1,0
			c0.3-0.1-0.2-0.3,0.1-0.4c0-0.1-0.1-0.1-0.2-0.1l0.1-0.1h4.1c-0.1,0.1-0.2,0.2-0.1,0.4c-0.3,0,0,0.3-0.1,0.4
			c0,0.1,0.2,0.3-0.1,0.4c-0.1,0.1-0.1,0.2,0,0.2c0.1,0,0.2,0,0.2,0c0.3,0.2,0.1-0.3,0.4-0.3c0-0.3,0.1-0.6,0.1-1c0,0-0.1,0-0.1,0
			l0.1-0.1c0,0,0,0,0,0l0.4,0c0,0.1,0,0.1,0,0.2c0,0-0.1,0.1-0.1,0.1c0,0.2-0.1,0.4,0.1,0.5v-0.1c0.3-0.1,0.2-0.4,0.6-0.5
			c0-0.1,0-0.1,0-0.1l3.4,0l0,0c-0.1,0,0,0.1-0.1,0.2c0,0,0.1,0,0.1,0c0-0.2,0.2-0.1,0.3-0.3l1.8,0c0,0,0,0-0.1,0.1
			c0.1,0,0.1,0.1,0.1,0.2c-0.2,0.2-0.1,0.3-0.1,0.5l-0.1,0.1c0.1,0.1,0.1,0.4,0,0.6l0.1,0.1c-0.1,0,0,0.2-0.1,0.2
			c0.1,0.2-0.2,0.3,0.1,0.5c0,0-0.1,0.1-0.1,0.2l0.3,0c-0.1,0.1,0,0.2-0.1,0.2c0.1,0,0.1,0.1,0.1,0.2l-0.1,0.1c-0.2-0.1-0.3,0-0.5,0
			l-0.3,0c0,0-0.1,0-0.1-0.1c0,0,0,0-0.1,0.1l-4,0c-0.3,0-0.6-0.1-0.8,0l-0.2-0.1c-0.4,0.1-0.7,0-1,0c-0.1,0.1-0.3,0-0.4,0.1
			c0,0,0,0,0,0l-1,0c0,0,0.1-0.1,0.1-0.1c-0.3-0.2-0.9-0.2-1.2,0c-0.3-0.2-0.5-0.1-0.7,0.1l-3.2,0c0-0.1,0-0.1-0.1-0.1
			c-0.1,0.1-0.2,0-0.3,0c-0.3,0-0.7,0-1,0.1c0-0.1-0.2,0-0.2-0.1c-0.4-0.1-0.9,0.2-1.2-0.1c-0.3,0.2-0.7,0-1,0.1l-0.2,0.1
			c-0.1-0.1-0.3,0-0.4-0.2c-0.1,0.1-0.2,0.1-0.2,0L96.7,33c-0.1-0.1-0.4-0.3-0.5-0.1c-0.4-0.1-0.9-0.1-1.2,0.1c0,0,0,0.1,0,0.1
			c0,0,0,0,0,0.1l-0.3,0c0-0.1,0.2-0.3,0-0.4c-0.6,0-1,0.1-1.5-0.2c-0.3,0.1-0.4-0.4-0.7-0.2c-0.1-0.1-0.2-0.1-0.2-0.3
			c-0.4,0.1-0.4-0.5-0.7-0.3c0,0-0.1-0.1-0.1-0.2c-0.4,0-0.4-0.4-0.7-0.5c0.1,0,0-0.1,0-0.2c0-0.1-0.1-0.1-0.2,0
			c0.1-0.4-0.4-0.2-0.3-0.6h-0.1c-0.2-0.1,0.1-0.2,0-0.3c0,0-0.1,0-0.1-0.1L101.1,30.2L101.1,30.2z M128.1,30.2c0,0,0,0.1,0,0.1
			c0.1,0.2,0,0.3,0,0.4c-0.2,0.1,0.2,0.3-0.1,0.4c0.2,0.2,0,0.6,0.2,0.8c-0.1,0.1,0,0.4,0,0.5c0,0.1,0,0.2,0,0.4c0,0-0.1,0-0.1,0
			c0,0.1,0,0.2,0,0.3l-0.3,0c0.1-0.1,0-0.1,0-0.2c0,0-0.1-0.1-0.1-0.2c0.1-0.1,0-0.1,0-0.2c0.1-0.1-0.1-0.4,0-0.6
			c0-0.1,0.1-0.2,0-0.3c0,0,0.2-0.1,0.1-0.2c-0.2-0.1,0.1-0.3-0.2-0.3c0.1,0,0-0.2,0.1-0.3l-0.1-0.1c0,0,0.1-0.1,0-0.2
			c0,0-0.1-0.1-0.1-0.2l0.1-0.1c-0.1-0.1-0.1-0.1-0.2-0.2c0,0,0,0,0,0L128.1,30.2L128.1,30.2z M113.9,32c-0.5,0-0.9,0.1-1.5-0.1
			c-0.2,0.2-0.3,0.3-0.3,0.5l0.5,0c0.2-0.2,0.4,0.1,0.6,0c0,0,0.1,0.1,0.1,0.1c0.2-0.1,0.4,0,0.6-0.1C114,32.3,114,32.1,113.9,32
			L113.9,32z M98.2,32.1c0,0,0.1-0.1,0.1-0.2c0,0,0.1,0,0.1,0c0.2,0.1,0,0.2,0.1,0.3c0-0.1,0.2-0.1,0.1-0.2c0-0.1-0.1-0.1-0.2-0.1
			c0,0-0.1,0-0.1,0l-0.1-0.3c-0.2,0-0.1-0.1-0.2-0.2c-0.3-0.1-0.3,0.2-0.5,0.4l-0.1-0.1c-0.8-0.4-1.7,0.2-2.5-0.3
			c0,0.2-0.2,0.3-0.1,0.5c0,0.1,0.1,0.1,0.2,0.1c0.2,0.1,0.4,0.1,0.7,0.1l0.1-0.1c0.5,0.4,1.1-0.1,1.6,0.1l0.2-0.1l0.1,0.1
			c0,0-0.1,0.1-0.1,0.1v0.1c0.1,0,0.1,0.1,0.2,0.2c0.1,0,0.3-0.2,0.4,0l0.1-0.1c0,0,0,0,0.1,0L98.2,32.1L98.2,32.1z M102.4,31.5
			c-0.1,0.1-0.2-0.1-0.4,0l0,0.2c0.1,0.3,0.2,0.5,0.4,0.6c0.1-0.1,0.4-0.1,0.5,0c0.2-0.1,0.3-0.2,0.4-0.5c-0.2-0.1,0-0.1,0-0.2
			c-0.2,0-0.4-0.2-0.5,0C102.6,31.3,102.5,31.8,102.4,31.5L102.4,31.5z M101.3,31.5l0-0.1l-0.2-0.1c0,0.1,0.1,0.2,0.2,0.3
			c0,0.2,0.1,0.3-0.1,0.5c0.3,0.2-0.2,0.4,0,0.6c0,0.1,0.1,0.1,0.2,0.1c-0.1-0.1,0-0.2,0.1-0.2c0,0,0,0,0.1,0
			c-0.2-0.3,0.3-0.3,0-0.5c0,0,0.1-0.1,0.1-0.2c-0.1,0-0.1-0.1-0.2-0.1c0-0.1,0.2-0.1,0.1-0.2C101.5,31.5,101.4,31.6,101.3,31.5
			L101.3,31.5z M113.7,30.8c-0.2-0.4-0.4,0.1-0.5,0.3c0,0.1-0.1,0.2-0.3,0.2v0.1c-0.1,0.1-0.1,0.2-0.3,0.2l0.3,0
			c0.2,0.3,0.4,0,0.7,0.1c0-0.1-0.1-0.1-0.1-0.2c0.1,0,0.1-0.1,0.2-0.1c0-0.1-0.1-0.2,0-0.3l-0.1-0.1
			C113.6,30.9,113.6,30.8,113.7,30.8L113.7,30.8z"/>
		<path class="st44" d="M85.2,30.2c0-0.1,0-0.2,0-0.3c-0.3,0,0.1-0.3-0.1-0.4c0.2-0.2,0-0.5,0.2-0.8c-0.2-0.1,0-0.1-0.1-0.3
			c0-0.1,0.2-0.3,0-0.4c0-0.1,0.1-0.2,0-0.3c0.2-0.1,0.1-0.4,0.1-0.5l-0.2-0.1c0-0.1,0.2,0,0.2-0.1c0,0,0-0.1,0-0.2
			c0-0.1,0.2-0.4,0.2-0.7c0.1,0,0.1,0,0.1-0.1c-0.1-0.2,0.1-0.2,0.1-0.3c0.2-0.2,0.4-0.4,0.8-0.3c0.1-0.1,0.2-0.2,0.2-0.4
			c0.1,0.1,0.1,0.2,0.2,0.2h1.5c0.3,0,0.4,0.1,0.7,0.1h0.5l0.7,0.1c0.1,0,0.2,0,0.3,0l0.2,0h0.4c0.1,0,0.3,0.1,0.4,0.1
			c0.1,0,0.2,0,0.3,0c0,0,0.1,0,0.1,0c0.1,0,0.1,0,0.2,0c0.4-0.3,0.7-0.3,1.2-0.3c0.4,0,0.7,0.1,1,0.1c0,0,0.1,0,0.1,0
			c0.1,0.1,0.2,0.2,0.2,0.3l0.1,0c-0.1,0.1,0.1,0.3,0,0.4c0.2-0.1,0.3,0.1,0.5,0c0.2,0.2,0.3,0,0.5,0.1c0.2,0.2,0.4,0,0.5,0.2
			c0.2,0,0.2-0.1,0.3-0.2c-0.3-0.1,0.2-0.3-0.1-0.5c0,0,0.1-0.1,0.1-0.1c0-0.1,0-0.2,0-0.3c0-0.1-0.1-0.2-0.1-0.3
			c0-0.3,0-0.4,0.1-0.6c0,0,0-0.1,0-0.2l0-0.1c0-0.2-0.1-0.3-0.1-0.4l0-0.2l0.2-1.2c0-0.1,0-0.1,0-0.2c0-0.1,0-0.2,0.1-0.3
			c0,0,0-0.1,0-0.1c-0.1-0.2,0.1-0.4,0.1-0.5c0,0,0-0.1-0.1-0.1c0.1-0.2,0.1-0.4,0.1-0.7c0-0.1,0-0.1,0.1-0.1c0-0.1,0.1-0.2,0.2-0.3
			c0.3,0.1,0.5,0.2,0.9,0.2c0.1,0.1,0.1,0.2,0.2,0.4l0.1,0.1c0,0,0.1,0,0.1,0c-0.2,0.4-0.2,0.9-0.2,1.4c0,0.2,0,0.3,0.1,0.4
			c0,0-0.1,0.1-0.1,0.1l0,0.5c0,0.1,0,0.1,0,0.2v0.5c0,0.1,0,0.2,0,0.3c0,0.4-0.1,0.6-0.1,0.9c0,0.1,0,0.1,0,0.2c0,0,0,0-0.1,0
			c0,0.1,0.1,0.1,0.1,0.2L98,25.6c0.2,0.1-0.2,0.2,0,0.3c-0.1,0,0,0.2-0.1,0.2l0.1,0.2c0,0-0.1,0.1-0.1,0.1c0,0.1,0,0.3,0,0.4
			c0.3-0.1,0.5,0.1,0.7,0.1c0.2,0.1,0.5,0.1,0.8,0.1c0.2,0.1,0.4,0.1,0.6,0.1c0.1,0,0.4,0.1,0.4,0.1c0.4,0,0.7,0.1,1,0
			c0.1,0.1,0.3,0.2,0.4,0.1c0.1,0.2,0.3,0.2,0.4,0.1c0.1,0.2,0.2,0.2,0.3,0.3c0.1,0.4,0.3,0.6,0.3,1v0.8c0.1,0.1,0.2,0.1,0.3,0.1
			c0.3,0,0.4-0.2,0.6-0.3l0.1-0.1c0.3-0.2,0.5-0.4,0.8-0.4c0-0.2,0.3-0.1,0.3-0.3c0.1,0,0.2,0,0.2-0.2c0,0.2,0.2,0,0.3,0.2
			c0,0.2-0.2,0.4-0.4,0.5c-0.4-0.2-0.3,0.4-0.7,0.4c0,0.2-0.2,0.2-0.1,0.4c0-0.1,0.3-0.1,0.4,0c0.1,0,0.1-0.1,0.1-0.2
			c0.1-0.1,0.2-0.2,0.3-0.2c0.2,0,0.5-0.1,0.6-0.3c-0.1-0.1,0-0.1,0-0.2c0.1-0.1,0-0.2-0.1-0.3c0.1-0.2,0.3-0.4,0.2-0.7
			c0.2-0.1,0.4-0.1,0.6-0.3c0.2,0,0.3,0,0.4,0.1c0.2,0,0.4-0.1,0.5,0c0.3-0.1,0.1-0.5,0.3-0.6c0-0.1,0-0.2,0-0.3
			c0.1-0.1,0.1-0.1,0.2-0.2c0-0.1,0-0.1-0.1-0.2c0.2-0.2-0.1-0.5,0.2-0.5c0-0.1,0-0.1,0-0.1c0-0.1,0.1-0.1,0.1-0.2
			c0.3-0.5,0.2-1,0.7-1.3c0.3-0.2,0.7-0.2,1-0.4c0.3,0.1,0.6,0.2,0.9,0.1c0.2,0.3,0.4,0,0.6,0.1c0.1-0.2,0.2,0,0.2,0
			c0.6,0.3,0.9-0.5,1.3-0.7c0.3,0,0.4-0.4,0.7-0.5c0.2-0.1,0.3-0.2,0.4-0.3c0,0,0.1-0.1,0.1-0.2c0.3,0,0.4-0.5,0.7-0.5
			c0.3-0.3,0.6-0.6,1-0.8c0-0.1,0.1-0.2,0.2-0.3c0.4,0,0.2-0.4,0.6-0.4c0.3-0.4,0.7-0.5,1-0.8c0-0.3,0.5-0.2,0.5-0.5
			c0.3,0,0.4-0.4,0.7-0.5c0-0.3,0.4-0.2,0.5-0.5c0.4-0.1,0.4-0.4,0.8-0.5c0.1-0.4,0.6-0.2,0.6-0.6c0.3-0.1,0.5-0.3,0.7-0.6l1.5-1.3
			c0.2-0.1,0.4-0.4,0.6-0.5c0.4-0.1,0.4-0.5,0.7-0.6c0.3-0.3,0.8-0.6,1.2-0.4c0.2-0.2,0.5,0.2,0.6-0.1c0.5,0.1,1.1,0,1.6,0l0.1,0.1
			c0,0.1,0,0.1-0.1,0.2c-0.1,0.1-0.2,0.2-0.3,0.3c0,0.1-0.1,0.1,0,0.2l0.1,0.1l-0.1,0.1c0.2,0.2,0,0.4,0.1,0.6c0,1.1,0.1,1.9,0.1,3
			c0.2,0.1-0.1,0.3,0.1,0.5c0,0.3,0,0.7,0,1c0.1,0.5,0.1,1,0.1,1.5c0,0.1,0,0.3,0,0.4c0.1,0.1,0,0.2,0.1,0.2l-0.1,0.1
			c0.1,0.8,0,1.6,0.1,2.4c0.3,0,0,0.3,0.1,0.4c0,0.1,0,0.3,0,0.5c-0.1,0.2-0.1,0.3,0,0.4l-0.1,0.1c0.1,0.2,0.1,0.4,0.1,0.5
			c-0.1,0.1,0,0.1,0,0.2l0,0.8c0.2,0.1-0.1,0.3,0.1,0.4c-0.1,0.1,0,0.2,0.1,0.3c-0.2,0.1,0,0.3-0.1,0.4c0.2,0.4,0,0.9,0.2,1.3
			c-0.1,0.3,0,0.6,0,0.9l-0.3,0c0,0,0.1-0.1,0.1-0.1l-0.1-0.1c0,0,0.1-0.1,0.1-0.2l-0.1-0.1c0.2-0.2,0-0.3,0.1-0.5l-0.1-0.1
			c0.1,0,0.1-0.1,0.1-0.2l-0.1-0.1c0.3-0.1-0.2-0.3,0.1-0.4c0-0.2-0.3-0.4,0-0.6c0,0-0.1-0.1-0.1-0.2c0.2-0.1,0-0.2,0-0.3
			c0.2-0.1-0.1-0.3,0-0.5l0.1-0.2l-0.2-0.2l0.1,0c-0.1-0.2,0.1-0.4-0.1-0.5c0.1-0.1,0-0.2,0-0.3c0.1,0,0.1-0.1,0-0.2l-0.1-0.1
			c0.2-0.1-0.1-0.3,0.2-0.4c-0.3-0.2-0.1-0.5-0.2-0.7c0.1-0.2-0.1-0.4,0-0.5c-0.1-1.4-0.1-2.8-0.1-4.3c-0.2-0.2,0-0.4,0-0.6
			c-0.2-0.2,0.2-0.5-0.1-0.7c0.1-0.2,0-0.4,0-0.6c0-0.9-0.1-1.8-0.1-2.6l-0.1-0.4c-0.4,0.2-0.5,0.7-0.8,0.8c0,0,0,0.1,0,0.1
			c-0.1,0.2-0.4,0.3-0.4,0.5c-0.8,0.4-1,1.3-1.7,1.9c-0.1,0.3-0.4,0.4-0.5,0.7c-0.3,0.2-0.5,0.5-0.7,0.8c-0.2,0-0.2,0.4-0.4,0.4
			l-0.6,0.7c0,0.2-0.2,0.1-0.2,0.3c-0.7,0.7-1.1,1.4-1.8,2.1c0,0.1-0.3,0.1-0.2,0.3c-0.2,0.4-0.8,0.7-1,1.1c0.2,0.3-0.2,0.1-0.2,0.4
			c-0.3,0.2-0.5,0.6-0.8,0.7l0,0.3c-0.2,0-0.1,0.2-0.3,0.2v0.1c-0.3,0-0.2,0.4-0.4,0.4c0,0.4-0.4,0-0.3,0.4
			c-0.3,0.1-0.1,0.5-0.4,0.5c0,0.2-0.3,0.2-0.3,0.5c-0.2,0-0.2,0.4-0.4,0.4c0,0.3-0.4,0.3-0.4,0.6c-0.3,0-0.1,0.3-0.2,0.5
			c-0.1,0-0.1,0-0.1,0.1c0.3,0.2-0.1,0.4,0.1,0.5c-0.1,0.1,0,0.2,0,0.3l-1.8,0c0,0,0,0,0,0c0-0.2,0.3-0.2,0.2-0.4
			c-0.1-0.2,0.2-0.2,0.3-0.2c0,0,0-0.1,0-0.1c0.1-0.1,0.3-0.1,0.3-0.2l0,0l-0.1-0.1c-0.3,0-0.6-0.2-0.9,0c0,0.1-0.1,0.3,0,0.4
			c-0.3,0.2,0.2,0.4-0.2,0.5l0,0h-3.4c0.1-0.1,0.3-0.1,0.3-0.3c0.3,0,0.2-0.4,0.5-0.4c0-0.2,0.3-0.3,0.3-0.5c-0.1,0-0.2,0.1-0.2,0
			l-0.1,0.1c-0.1,0-0.1-0.1-0.2-0.1c-0.1,0.2-0.2-0.1-0.3,0c-0.2,0-0.2,0.2-0.3,0.3c-0.3-0.1-0.1,0.2-0.3,0.3
			c-0.1,0.3-0.2,0.4-0.2,0.5l-0.4,0c0-0.1,0-0.1-0.1-0.2c-0.1,0.2-0.2,0-0.3,0.1c0,0,0,0.1,0,0.1l-4.1,0l0.1-0.1c0,0,0,0,0.1,0
			c0-0.1,0-0.1-0.1-0.2c0.1,0,0.1-0.1,0.1-0.1c-0.1,0.1-0.2,0.2-0.2,0.3c0,0,0,0-0.1,0.1c0,0-0.1,0.1-0.1,0.1l-2.4,0
			c0-0.2,0.3-0.3,0-0.4c0.1-0.1,0.1-0.2,0.1-0.3c-0.2-0.1,0.1-0.2-0.1-0.3c0.2-0.2,0.3-0.4,0.6-0.3c0.1-0.3,0.5-0.1,0.5-0.3
			c-0.2-0.1,0.1-0.3-0.2-0.3c0.3-0.2-0.1-0.3,0-0.5c0,0-0.1,0-0.2,0c-0.2,0.1-0.4-0.3-0.7-0.1c-0.1,0-0.2-0.2-0.3-0.1
			c-0.6,0-1.2-0.3-1.8-0.3c-0.2-0.2-0.5-0.1-0.8-0.2c-0.2,0-0.7-0.2-0.9,0.1c-0.2,0-0.3-0.1-0.5,0c0-0.2-0.4,0-0.3-0.3
			c-0.3,0.1-0.5-0.3-0.8-0.2l-0.2-0.1c-0.6,0-1.2-0.4-1.8-0.1c0.1,0.1,0.3,0,0.3,0.2c0,0,0,0.1,0,0.1l0.4,0.1c0,0.1,0,0.1,0,0.2
			c0.1,0,0.2,0,0.2,0l0.1,0.1c0.3,0.1,0.7-0.1,1,0c0.2,0.2,0.4,0.1,0.6,0.1c0.2,0,0.6,0.1,0.8,0c0.2,0.2,0.4,0.3,0.7,0.2
			c0,0.1,0.2,0,0.2,0.1l0.4-0.1c0.1,0.3,0.4,0,0.5,0.2c0.1,0,0.3,0,0.4,0c0.2,0.3,0.4-0.1,0.7,0.1c0.2,0.3,0.7-0.1,0.7,0.4
			c0.5,0-0.1,0.4,0.3,0.5c0,0.2-0.2,0.1-0.3,0.2c0.2,0.2-0.2,0.3,0,0.4c-0.2,0.1,0.1,0.3-0.1,0.4c0.1,0,0.1,0.1,0.1,0.2
			c0,0.1-0.1,0.1-0.2,0.1c0.1,0,0.1,0.1,0.1,0.2l-10.8,0c0-0.1,0-0.2-0.2-0.2c0-0.1,0-0.1,0.1-0.2c-0.4,0,0.1-0.3-0.2-0.5
			c0.1-0.1,0-0.1,0-0.3c0,0,0.1-0.1,0.2-0.1c0-0.1,0-0.1-0.1-0.2l0.2-0.2l-0.1-0.1c0.2-0.1-0.2-0.6,0.1-0.8
			c-0.1-0.2,0.1-0.2,0.1-0.3c-0.2-0.1,0-0.2,0.1-0.3c-0.2-0.1,0-0.2,0-0.3c-0.1-0.1-0.3,0-0.4-0.1c-0.4,0.1-0.7-0.1-1.1,0
			c-0.2-0.2-0.3-0.1-0.5,0c-0.5-0.3-0.5,0.4-0.7,0.5c0,0,0.1,0.1,0.1,0.1c0,0.2,0,0.4,0.1,0.7c-0.5,0.4,0.1,0.8-0.2,1.3
			c0.3,0.2-0.2,0.3,0.1,0.5c-0.2,0.2-0.1,0.4-0.1,0.6l-0.3,0c0-0.1,0.1-0.2,0-0.2c0,0,0.1,0,0.1,0v-0.1c-0.1,0-0.1,0-0.2-0.1
			c0-0.1,0.1-0.1,0.2-0.2c0,0,0,0-0.1,0l0-0.4c0.5-0.2-0.1-0.5,0.1-0.8c-0.2-0.1,0.2-0.2,0-0.3c0.3-0.2-0.2-0.3,0.1-0.5
			c-0.2-0.1,0.1-0.3-0.2-0.4c0.2-0.1,0.1-0.3,0.3-0.4l-0.2-0.1c0.2-0.2-0.1-0.4,0-0.6c-0.1-0.4-0.4-0.2-0.7-0.3
			c-0.1,0.2-0.3-0.1-0.4,0.2c-0.2,0.2-0.3,0.4-0.6,0.5c0.1,0.4,0.3-0.1,0.6,0c0.3,0.2,0.1,0.4,0.2,0.7c-0.3,0.4,0.1,0.8-0.1,1.3
			c0.2,0.1,0,0.2-0.1,0.3c0,0.3,0.1,0.7,0.1,1c-0.1,0.2-0.1,0.3-0.1,0.5l-0.3,0c0,0,0-0.1-0.1-0.1l0.1-0.1c0-0.1-0.1-0.1-0.1-0.2
			c0-0.1,0.1-0.2,0.2-0.2c-0.2-0.1,0-0.3-0.1-0.4c0-0.1,0-0.1,0.1-0.2c-0.1-0.2,0.1-0.4-0.1-0.5c0-0.1,0.1-0.1,0.2-0.1
			c-0.1-0.2,0-0.2,0-0.4c-0.3-0.1,0.2-0.2-0.1-0.3c0.2-0.2-0.2-0.4,0.1-0.5c-0.2-0.1,0.1-0.3-0.1-0.4c-0.3,0.1,0,0.5-0.3,0.7
			c0,0.3,0.2,0.6,0,0.8c0.1,0.2-0.2,0.3,0,0.4c-0.1,0.2,0.1,0.4-0.2,0.5c0,0.3,0.2,0.6,0,0.9L85.2,30.2L85.2,30.2z M97.9,28.5
			c-0.1-0.1-0.2,0-0.2,0.1c-0.2,0.2,0.1,0.5-0.3,0.5c0,0.1,0,0.1,0,0.2c0.3,0.1,0.7-0.1,1,0c0,0,0.1-0.1,0.1-0.1
			c-0.4-0.1,0.3-0.3-0.1-0.4l0.1-0.2C98.3,28.4,98.1,28.5,97.9,28.5L97.9,28.5z M91.2,26c-0.1-0.2-0.5-0.1-0.6-0.1
			c0.2,0.1-0.1,0.2,0,0.4c-0.1,0.5,0.7,0.1,1,0.3c0.2-0.1,0.3,0.3,0.4,0.1c0.3,0,0.5,0,0.8,0.2c0.4-0.2,0.7,0.4,1-0.1l-0.1-0.2
			c0.1-0.1,0.2-0.1,0.2-0.2c-0.1,0-0.1,0-0.2,0.1c-0.2-0.2-0.5-0.2-0.8-0.2c-0.2-0.4-0.6,0.1-0.9-0.1c0-0.1-0.1-0.1-0.2-0.2
			C91.7,26.1,91.5,25.8,91.2,26L91.2,26z M89.5,25.9c-0.2,0-0.4-0.1-0.5,0c-0.4-0.1-0.8,0-1.2,0c0,0,0,0.1,0,0.1
			c0,0-0.1,0.1-0.1,0.1v0.2c0.2,0.1,0.5-0.1,0.7,0c0.2,0.3,0.5,0,0.7,0.2c0.3,0,0.7,0.2,1,0c0.1,0,0.1,0.1,0.1,0.2
			c0.1,0,0.1-0.2,0.3-0.2c-0.1,0,0-0.1,0-0.2c0,0-0.1,0-0.1,0c0-0.1,0.1-0.1,0.1-0.2h-0.3c-0.1-0.2-0.4,0.1-0.4-0.2
			C89.7,25.7,89.6,25.8,89.5,25.9L89.5,25.9z M97.7,24.4c0-0.1,0-0.1,0-0.2c0-0.1,0-0.1,0-0.2c0-0.1,0-0.2,0-0.2l0-1.2l0.1-0.5
			c0-0.1,0-0.2-0.1-0.2c0.2-0.2,0-0.4,0-0.5c0.3-0.2,0-0.4,0.1-0.6c-0.2-0.1-0.4-0.1-0.6-0.2c-0.1,0.1-0.2,0.3-0.1,0.4
			c-0.2,0.2,0,0.5-0.1,0.8c0,0.2-0.1,0.5-0.1,0.7c0,0.1,0,0.3,0,0.4l0,0.2c0,0.3,0,0.5-0.1,0.8c0,0.1,0,0.2,0,0.4
			c0.1,0.5-0.3,0.8-0.1,1.2l0.2,0.1c-0.1,0.1,0,0.1,0,0.2c-0.1,0.1-0.2,0.2,0,0.2c0,0.1-0.1,0.1-0.2,0.2c0,0.1,0,0.1,0.1,0.2
			c-0.3,0.2,0.2,0.3,0,0.5c0.3-0.1,0.5,0.3,0.8,0.1c0-0.1-0.1-0.1-0.1-0.2c0-0.1,0.2-0.1,0.1-0.2c-0.1-0.1,0.1-0.1,0.1-0.2
			c-0.2-0.1-0.1-0.3,0-0.3c-0.1,0-0.1,0-0.2-0.1l0.1-0.1c0.1-0.1,0.1-0.2,0-0.2c0-0.1,0-0.1,0.1-0.2C97.6,25.1,97.6,24.7,97.7,24.4
			L97.7,24.4z M118.5,20.3c-0.4,0.3-0.8,0.9-1.3,1.2c-0.2,0.4-0.7,0.5-0.8,0.9c-0.3,0.2-0.6,0.6-1,0.8c-0.2,0-0.1,0.4-0.4,0.3
			c0,0-0.1,0.1-0.1,0.2c-0.3,0.1-0.2,0.4-0.3,0.3c-0.2,0-0.4,0.2-0.5,0.4c0.2,0.1,0.4-0.1,0.6,0.1c0.2-0.1,0.1-0.3,0.4-0.3
			c0.3-0.5,0.7-0.7,1-1.2c0.3,0.1,0.2-0.4,0.5-0.3c0.1-0.4,0.4-0.5,0.7-0.7c0.2-0.3,0.4-0.5,0.7-0.8
			C117.9,20.7,118.5,20.7,118.5,20.3L118.5,20.3z M125.8,14.8c-0.2,0-0.2-0.1-0.4,0c-0.5-0.1-0.9,0.3-1.2,0.7
			c-0.9,0.7-1.6,1.6-2.4,2.5c-0.3,0.5-0.8,0.8-1.2,1.3c-0.5,0.5-1,1.1-1.5,1.6c-0.2,0-0.1,0.1-0.2,0.2c-0.6,0.3-1,1-1.4,1.4
			c0.1,0.3-0.4,0.2-0.3,0.5c-0.4,0.2-0.6,0.8-1.1,1c0,0.3-0.3,0.2-0.3,0.4c0,0.2-0.3,0.2-0.2,0.4c-0.1,0.2-0.4,0.3-0.4,0.5
			c0,0.2-0.1,0.5,0,0.7c0,0.1,0,0.3,0,0.4c0.2,0.2-0.1,0.3,0.1,0.5c-0.2,0.1,0.1,0.3-0.2,0.4c0.1,0.1,0,0.3,0.1,0.4
			c0.1,0.1,0.2-0.1,0.3-0.1c0,0-0.1-0.1-0.1-0.2c0.2-0.1,0.2-0.4,0.5-0.4c-0.1-0.3,0.4-0.2,0.3-0.5c0.3,0.1,0.1-0.4,0.4-0.4
			c-0.1-0.2,0.2-0.2,0.3-0.3c0-0.1,0-0.1,0.1-0.2c0.1,0,0.2-0.1,0.2-0.1c-0.1-0.1,0-0.1,0-0.2c0.1,0,0.1,0,0.2,0
			c0.1-0.1-0.1-0.3,0.2-0.3c0.2-0.1,0-0.2,0.1-0.3c0.1,0,0.3-0.2,0.4-0.4c0,0,0.1-0.1,0.2-0.1c0.1-0.2,0.3-0.3,0.5-0.5v-0.1
			c0.2-0.5,0.7-0.8,1.1-1.3c0,0,0,0,0-0.1c0.3-0.1,0.3-0.4,0.6-0.6c0.2-0.4,0.8-0.7,0.9-1.2c0.3,0.1,0-0.3,0.4-0.3
			c0.2-0.2,0.3-0.4,0.5-0.6c0-0.3,0.2-0.5,0.5-0.7c0-0.2,0.4-0.3,0.4-0.5c0.3-0.2,0.3-0.5,0.5-0.7c0.1,0,0.2,0,0.2-0.2
			c0.3-0.2,0.5-0.6,0.8-0.8l-0.1-0.1c0.2-0.2,0.4-0.5,0.6-0.7c0.2-0.2,0.5-0.4,0.6-0.7C125.5,15.1,125.7,14.9,125.8,14.8L125.8,14.8
			z"/>
		<path class="st13" d="M87.5,26c-0.1-0.4-0.4-0.2-0.7-0.3c-0.1,0.2-0.3-0.1-0.4,0.2c-0.2,0.2-0.3,0.4-0.6,0.5
			c0.1,0.4,0.3-0.1,0.6,0c0.3,0.2,0.1,0.4,0.2,0.7c-0.3,0.4,0.1,0.8-0.1,1.3c0.2,0.1,0,0.2-0.1,0.3c0,0.3,0.1,0.7,0.1,1
			c-0.2,0.4,0,0.6-0.2,1c0.2,0.2-0.1,0.6,0,0.9c0,0.1,0,0.2-0.1,0.3c0,0,0.1,0,0.1,0c0,0.1,0,0.1-0.1,0.2l0.1,0.1
			c-0.1,0.2,0,0.4-0.2,0.5h0.2c0.3-0.2,0.5-0.4,0.8-0.6L87,32.1c0-0.1,0.1-0.4,0.3-0.4c0-0.1-0.1-0.1-0.1-0.2l0.2-0.2
			c0-0.1-0.1-0.1-0.2-0.1l0.2-0.2c-0.3-0.1,0.2-0.3-0.1-0.4l0.1-0.1c-0.3-0.2,0.2-0.4,0-0.5c0,0,0.1,0,0.1,0v-0.1
			c-0.1,0-0.1,0-0.2-0.1c0-0.1,0.1-0.1,0.2-0.2c0,0,0,0-0.1,0l0-0.4c0.5-0.2-0.1-0.5,0.1-0.8c-0.2-0.1,0.2-0.2,0-0.3
			c0.3-0.2-0.2-0.3,0.1-0.5c-0.2-0.1,0.1-0.3-0.2-0.4c0.2-0.1,0.1-0.3,0.3-0.4l-0.2-0.1C87.7,26.4,87.4,26.2,87.5,26L87.5,26z"/>
		<path class="st13" d="M86.1,31.4c-0.2,0-0.3,0-0.5,0.2l0,0.1c0,0.2,0,0.3,0,0.5c0,0.2,0.1,0.4-0.2,0.5c0.2,0.1-0.1,0.3,0.2,0.4
			c-0.2,0.3,0.1,0.5,0,0.8c0.2,0.3,0,0.7-0.1,0.9c0,0,0.1,0,0.1,0c0,0.1,0,0.2-0.1,0.2c0.2,0.1,0,0.3,0.2,0.4c0,0,0.1,0,0.1,0
			c-0.1-0.1,0.1-0.2,0.1-0.3l-0.1-0.1c0-0.2,0.1-0.1,0.2-0.2c0-0.1,0-0.2,0-0.2c0.2-0.1,0.2-0.2,0.3-0.3c0-0.2,0.3-0.4,0.6-0.3
			c0.3,0,0.2-0.4,0.4-0.4c-0.3,0,0-0.2,0-0.3c-0.2-0.1,0.1-0.2-0.1-0.3c-0.1-0.1,0.1-0.2,0.1-0.2c0-0.1,0-0.2-0.1-0.2
			C87,32.8,86.9,33,86.7,33c0,0.1,0,0.3-0.2,0.2c-0.1,0-0.2,0-0.2,0.2c-0.1,0-0.2,0.2-0.3,0.1c0-0.1-0.2-0.3,0-0.4
			c-0.2-0.1,0.3-0.3-0.1-0.4c0.3-0.1-0.1-0.3,0.1-0.5c-0.3,0,0-0.2-0.1-0.4C86,31.7,86.2,31.6,86.1,31.4
			C86,31.5,86.1,31.5,86.1,31.4L86.1,31.4z"/>
		<path class="st13" d="M87,34.7l0.1-0.1l-0.2-0.2l-0.2,0.2c-0.2-0.1-0.3,0.2-0.5,0.2c0,0.1-0.2,0.3-0.2,0.4c0.1,0.2,0,0.6-0.1,0.7
			c0.1,0,0.2,0,0.3,0c0.6,0.6,1.5,0.2,2.3,0.3c0-0.1,0.1-0.1,0.2-0.1c0.1,0,0.3,0.2,0.5,0c0.2,0.2,0.5,0.1,0.7,0
			c-0.2-0.2-0.5,0-0.7-0.2c-0.1,0.1-0.1,0-0.2,0c-0.3,0-0.5,0-0.8,0.1c-0.3-0.2-0.5,0.1-0.9,0c-0.1-0.2-0.5-0.1-0.3-0.3
			c-0.2-0.1,0.1-0.3-0.1-0.5c0.3-0.1-0.1-0.4,0.2-0.5C87.1,34.7,87.1,34.7,87,34.7L87,34.7z"/>
		<path class="st13" d="M88.9,26.7c-0.2-0.2-0.3-0.1-0.5,0c-0.5-0.3-0.5,0.4-0.7,0.5c0,0,0.1,0.1,0.1,0.1c0,0.2,0,0.4,0.1,0.7
			c-0.5,0.4,0.1,0.8-0.2,1.3c0.3,0.2-0.2,0.3,0.1,0.5c-0.3,0.3,0,0.6-0.1,0.9c-0.1,0.1-0.2,0.1-0.1,0.2c-0.2,0.2,0.2,0.3,0,0.4
			c0,0,0,0,0.1,0c-0.1,0.1,0.2,0.4-0.1,0.5c0.1,0.2,0,0.5,0,0.8c-0.2,0.3,0,0.7-0.1,1c0,0.1-0.2,0-0.2,0.1c0.2,0,0,0.2,0.1,0.3
			c0,0.2-0.1,0.4,0,0.7c-0.3,0.2,0.2,0.2,0,0.4c0.2,0.1,0.1,0.5,0.3,0.6c0.7-0.1,1.4,0.3,2.1,0.2c0.4,0.1,1.1,0,1.6,0
			c0.2-0.1,0.3-0.2,0.5-0.2c0-0.2,0.2-0.3,0.2-0.5c0.1-0.2,0.5-0.1,0.7-0.2c0.3,0.3,0.6-0.1,0.8,0.2c0-0.1,0-0.1,0-0.1
			c0.1-0.1,0.2-0.1,0.2-0.2c0.3,0.2,0.6-0.1,0.9,0.1c0.3,0,0.6,0.1,0.8-0.2c-0.1,0.1-0.3-0.1-0.5,0c-0.1-0.1-0.1-0.4-0.3-0.3
			c0-0.1,0-0.1,0.1-0.2l-0.1-0.2c0.2-0.1,0-0.3,0.2-0.5l-0.2-0.1l0.2-0.2c-0.3-0.1,0.2-0.4-0.2-0.5c-0.6,0-1,0.1-1.5-0.2
			c-0.3,0.1-0.4-0.4-0.7-0.2c-0.1-0.1-0.2-0.1-0.2-0.3c-0.4,0.1-0.4-0.5-0.7-0.3c0,0-0.1-0.1-0.1-0.2c-0.4,0-0.4-0.4-0.7-0.5
			c0.1,0,0-0.1,0-0.2c0-0.1-0.1-0.1-0.2,0c0.1-0.4-0.4-0.2-0.3-0.6h-0.1c-0.2-0.1,0.1-0.2,0-0.3c-0.2-0.1,0-0.3-0.2-0.3
			c0-0.1,0-0.1,0.1-0.2c-0.4,0,0.1-0.3-0.2-0.5c0.1-0.1,0-0.1,0-0.3c0,0,0.1-0.1,0.2-0.1c0-0.1,0-0.1-0.1-0.2l0.2-0.2l-0.1-0.1
			c0.2-0.1-0.2-0.6,0.1-0.8c-0.1-0.2,0.1-0.2,0.1-0.3c-0.2-0.1,0-0.2,0.1-0.3c-0.2-0.1,0-0.2,0-0.3c-0.1-0.1-0.3,0-0.4-0.1
			C89.6,26.9,89.3,26.6,88.9,26.7L88.9,26.7z"/>
		<path class="st13" d="M96.7,33c-0.1-0.1-0.4-0.3-0.5-0.1c-0.4-0.1-0.9-0.1-1.2,0.1c0,0,0,0.1,0,0.1c-0.1,0.1,0,0.3-0.1,0.4
			l0.1,0.1c0.1,0.2-0.1,0.5,0.1,0.6c0,0.1,0,0.1,0,0.2c0.5-0.1,0.9,0,1.4,0c0.3,0.2,0.7,0,1,0c0.1,0.2,0.4,0,0.5,0.2l-0.1,0.1
			c-0.2-0.1-0.3,0.2-0.4,0c-0.1,0,0,0.1,0,0.2c0.1,0.1,0.2,0.1,0.3,0.1c0.4-0.2,0.6,0.2,1,0.2c0.1-0.1,0.1,0,0.2-0.1
			c-0.2-0.3-0.5-0.2-0.7-0.2l-0.1-0.1c0.2-0.2,0.5,0,0.7-0.2c0.4-0.2,1-0.1,1.3,0c0.2-0.2,0.5-0.2,0.6-0.5c0.3,0,0.1-0.4,0.4-0.3
			c0.1,0,0.1,0,0.1-0.2c0-0.2,0.2-0.2,0.3-0.2c-0.1-0.1-0.1-0.2-0.2-0.2c-0.1,0.1-0.2,0-0.3,0c-0.3,0-0.7,0-1,0.1
			c0-0.1-0.2,0-0.2-0.1c-0.4-0.1-0.9,0.2-1.2-0.1c-0.3,0.2-0.7,0-1,0.1l-0.2,0.1c-0.1-0.1-0.3,0-0.4-0.2c-0.1,0.1-0.2,0.1-0.2,0
			L96.7,33L96.7,33z"/>
		<path class="st13" d="M89.5,25.9c-0.2,0-0.4-0.1-0.5,0c-0.4-0.1-0.8,0-1.2,0c0,0,0,0.1,0,0.1c0,0-0.1,0.1-0.1,0.1v0.2
			c0.2,0.1,0.5-0.1,0.7,0c0.2,0.3,0.5,0,0.7,0.2c0.3,0,0.7,0.2,1,0c0.1,0,0.1,0.1,0.1,0.2c0.1,0,0.1-0.2,0.3-0.2c-0.1,0,0-0.1,0-0.2
			c0,0-0.1,0-0.1,0c0-0.1,0.1-0.1,0.1-0.2h-0.3c-0.1-0.2-0.4,0.1-0.4-0.2C89.7,25.7,89.6,25.8,89.5,25.9L89.5,25.9z"/>
		<path class="st13" d="M91.2,26c-0.1-0.2-0.5-0.1-0.6-0.1c0.2,0.1-0.1,0.2,0,0.4c-0.1,0.5,0.7,0.1,1,0.3c0.2-0.1,0.3,0.3,0.4,0.1
			c0.3,0,0.5,0,0.8,0.2c0.4-0.2,0.7,0.4,1-0.1l-0.1-0.2c0.1-0.1,0.2-0.1,0.2-0.2c-0.1,0-0.1,0-0.2,0.1c-0.2-0.2-0.5-0.2-0.8-0.2
			c-0.2-0.4-0.6,0.1-0.9-0.1c0-0.1-0.1-0.1-0.2-0.2C91.7,26.1,91.5,25.8,91.2,26L91.2,26z"/>
		<path class="st13" d="M96.1,26.7l-0.2-0.1c-0.6,0-1.2-0.4-1.8-0.1c0.1,0.1,0.3,0,0.3,0.2c0,0,0,0.1,0,0.1l0.4,0.1
			c0,0.1,0,0.1,0,0.2c0.1,0,0.2,0,0.2,0l0.1,0.1c0.3,0.1,0.7-0.1,1,0c0.2,0.2,0.4,0.1,0.6,0.1c0.2,0,0.6,0.1,0.8,0
			c0.2,0.2,0.4,0.3,0.7,0.2c0,0.1,0.2,0,0.2,0.1l0.4-0.1c0.1,0.3,0.4,0,0.5,0.2c0.1,0,0.3,0,0.4,0c0.2,0.3,0.4-0.1,0.7,0.1
			c0.2,0.3,0.7-0.1,0.7,0.4c0.5,0-0.1,0.4,0.3,0.5c0,0.2-0.2,0.1-0.3,0.2c0.2,0.2-0.2,0.3,0,0.4c-0.2,0.1,0.1,0.3-0.1,0.4
			c0.1,0,0.1,0.1,0.1,0.2c0,0.1-0.1,0.1-0.2,0.1c0.2,0.1,0,0.3,0.1,0.3c0,0.2,0.1,0.4,0,0.6c0,0.1,0.1,0.1,0.2,0.1
			c0.1-0.2-0.1-0.4,0.1-0.6c0-0.1-0.2-0.1-0.1-0.2c-0.1-0.2,0.3-0.4,0-0.5c0.1-0.1,0.1-0.2,0.1-0.3c-0.2-0.1,0.1-0.2-0.1-0.3
			c0.2-0.2,0.3-0.4,0.6-0.3c0.1-0.3,0.5-0.1,0.5-0.3c-0.2-0.1,0.1-0.3-0.2-0.3c0.3-0.2-0.1-0.3,0-0.5c0,0-0.1,0-0.2,0
			c-0.2,0.1-0.4-0.3-0.7-0.1c-0.1,0-0.2-0.2-0.3-0.1c-0.6,0-1.2-0.3-1.8-0.3c-0.2-0.2-0.5-0.1-0.8-0.2c-0.2,0-0.7-0.2-0.9,0.1
			c-0.2,0-0.3-0.1-0.5,0c0-0.2-0.4,0-0.3-0.3C96.6,26.9,96.4,26.5,96.1,26.7L96.1,26.7z"/>
		<path class="st13" d="M112.9,33.5c0.2-0.1-0.1-0.3-0.2-0.2c-0.3-0.2-0.7,0-1,0c-0.1,0-0.1-0.1-0.2-0.1c-0.1,0.1-0.4,0.1-0.3,0.3
			c-0.2,0-0.1,0.2-0.3,0.3c-0.1,0.2-0.4,0.3-0.4,0.6c-0.1,0.2-0.3,0.2-0.3,0.4c0.2,0,0.6,0,0.6-0.1l-0.2,0.1c-0.1,0,0-0.1-0.1-0.2
			c0.2-0.2,0.4,0,0.6,0c0.2-0.1,0.5,0.2,0.7,0.1c0.3-0.2,0.4,0.2,0.7,0c0.3,0.1,0.7,0.2,1,0c0-0.1,0-0.2,0-0.3c0,0-0.1,0-0.1,0
			c0.1-0.1,0-0.2-0.1-0.2c0.1-0.1,0-0.2,0-0.3c-0.1,0-0.1-0.1-0.2-0.2C113.1,33.7,112.9,33.6,112.9,33.5L112.9,33.5z"/>
		<path class="st13" d="M109.2,33.2l-0.2-0.1c-0.4,0.1-0.7,0-1,0c-0.1,0.1-0.3,0-0.4,0.1c-0.1,0.1-0.3,0-0.3,0.2
			c-0.4,0.2-0.6,0.5-0.8,0.8h0.3c0.3,0.1,0.6,0.1,0.8,0c0.4,0.4,0.9,0,1.3,0.1c0.1,0,0.2,0,0.3,0.1c0.3,0.1,0.4-0.1,0.6-0.2v-0.1
			c-0.1-0.1,0.1-0.2,0.2-0.2c-0.2-0.4,0.5-0.2,0.3-0.5c0-0.1,0.1-0.1,0.2-0.1C110.1,33.2,109.6,33,109.2,33.2L109.2,33.2z"/>
		<path class="st13" d="M106.7,33.1c-0.3-0.2-0.9-0.2-1.2,0c-0.4-0.2-0.7,0.1-1,0.3c-0.3,0.2-0.4,0.5-0.7,0.6l-0.2,0.3
			c0.2,0.1,0.4-0.1,0.5,0c0.1-0.2,0.2,0,0.3,0c0.3-0.2,0.8,0,1.1-0.1c0-0.1,0.2-0.2,0.4-0.3c-0.1-0.3,0.4-0.1,0.3-0.5
			C106.6,33.6,106.4,33.1,106.7,33.1L106.7,33.1z"/>
		<path class="st13" d="M113.9,32c-0.5,0-0.9,0.1-1.5-0.1c-0.2,0.2-0.3,0.3-0.3,0.5l0.5,0c0.2-0.2,0.4,0.1,0.6,0
			c0,0,0.1,0.1,0.1,0.1c0.2-0.1,0.4,0,0.6-0.1C114,32.3,114,32.1,113.9,32L113.9,32z"/>
		<path class="st13" d="M102.4,31.5c-0.1,0.1-0.2-0.1-0.4,0l0,0.2c0.1,0.3,0.2,0.5,0.4,0.6c0.1-0.1,0.4-0.1,0.5,0
			c0.2-0.1,0.3-0.2,0.4-0.5c-0.2-0.1,0-0.1,0-0.2c-0.2,0-0.4-0.2-0.5,0C102.6,31.3,102.5,31.8,102.4,31.5L102.4,31.5z"/>
		<path class="st13" d="M101.3,31.5l0-0.1l-0.2-0.1c0,0.1,0.1,0.2,0.2,0.3c0,0.2,0.1,0.3-0.1,0.5c0.3,0.2-0.2,0.4,0,0.6
			c0,0.1,0.1,0.1,0.2,0.1c-0.1-0.1,0-0.2,0.1-0.2c0,0,0,0,0.1,0c-0.2-0.3,0.3-0.3,0-0.5c0,0,0.1-0.1,0.1-0.2c-0.1,0-0.1-0.1-0.2-0.1
			c0-0.1,0.2-0.1,0.1-0.2C101.5,31.5,101.4,31.6,101.3,31.5L101.3,31.5z"/>
		<path class="st13" d="M113.7,30.8c-0.2-0.4-0.4,0.1-0.5,0.3c0,0.1-0.1,0.2-0.3,0.2v0.1c-0.1,0.1-0.1,0.2-0.3,0.2l0.3,0
			c0.2,0.3,0.4,0,0.7,0.1c0-0.1-0.1-0.1-0.1-0.2c0.1,0,0.1-0.1,0.2-0.1c0-0.1-0.1-0.2,0-0.3l-0.1-0.1
			C113.6,30.9,113.6,30.8,113.7,30.8L113.7,30.8z"/>
		<path class="st13" d="M108.4,30.2c0-0.1,0-0.1-0.1-0.2c-0.1,0.2-0.2,0-0.3,0.1c0,0.2-0.3,0.2-0.2,0.5c-0.3,0,0,0.3-0.1,0.4
			c0,0.1,0.2,0.3-0.1,0.4c-0.1,0.1-0.1,0.2,0,0.2c0.1,0,0.2,0,0.2,0c0.3,0.2,0.1-0.3,0.4-0.3c0-0.3,0.1-0.6,0.1-1
			C108.4,30.3,108.3,30.3,108.4,30.2L108.4,30.2L108.4,30.2z"/>
		<path class="st13" d="M113.7,29.3L113.7,29.3c-0.4-0.1-0.6-0.2-1-0.1c0,0.1-0.1,0.3,0,0.4c-0.3,0.2,0.2,0.4-0.2,0.5l0.1,0.1
			c-0.1,0,0,0.1-0.1,0.2c0,0,0.1,0,0.1,0c0-0.2,0.2-0.1,0.3-0.3c0-0.2,0.3-0.2,0.2-0.4c-0.1-0.2,0.2-0.2,0.3-0.2c0,0,0-0.1,0-0.1
			C113.6,29.4,113.8,29.3,113.7,29.3L113.7,29.3L113.7,29.3z"/>
		<path class="st13" d="M110.2,29l-0.1,0.1c-0.1,0-0.1-0.1-0.2-0.1c-0.1,0.2-0.2-0.1-0.3,0c-0.2,0-0.2,0.2-0.3,0.3
			c-0.3-0.1-0.1,0.2-0.3,0.3c-0.1,0.3-0.3,0.4-0.2,0.7c0,0-0.1,0.1-0.1,0.1c0,0.2-0.1,0.4,0.1,0.5v-0.1c0.3-0.1,0.2-0.4,0.6-0.5
			c-0.1-0.3,0.3-0.1,0.3-0.5c0.3,0,0.2-0.4,0.5-0.4c0-0.2,0.3-0.3,0.3-0.5C110.3,29,110.3,29.1,110.2,29L110.2,29z"/>
		<path class="st13" d="M103.8,30C103.8,30,103.8,30,103.8,30c-0.3,0.4,0.1,0.8-0.2,1.1c0.1,0.2-0.1,0.3,0.1,0.4
			c0.2,0,0-0.3,0.2-0.3v-0.1c-0.2-0.1,0.1-0.2,0.1-0.3c0,0-0.1,0-0.1,0c0.3-0.1-0.2-0.3,0.1-0.4c0-0.1-0.1-0.1-0.2-0.1l0.2-0.2
			c0,0,0,0,0.1,0c0-0.1,0-0.1-0.1-0.2c0.1,0,0.1-0.1,0.1-0.1C103.9,29.8,103.9,29.9,103.8,30L103.8,30z"/>
		<path class="st13" d="M114.9,36.9c-0.2,0.1-0.5-0.1-0.7-0.1c-0.1,0.3-0.4,0.1-0.5,0.3l-0.4,0.3c-0.4,0-0.3,0.5-0.7,0.7
			c0.1,0.1,0.1,0.2,0,0.2c-0.1,0.2,0.1,0.4-0.2,0.5c0,0.1,0.1,0.1,0.1,0.2c0,0-0.1,0.1-0.1,0.1l0,0.3l0.9,0v-0.1c0,0,0.1,0,0.1,0
			v-0.5c0.2-0.1,0.2-0.4,0.5-0.5c0.3-0.1,0.6-0.1,0.8-0.3c0.1,0,0.2,0,0.3,0c0.3-0.3,0.5,0.4,0.9,0c0.1,0.3,0.5,0.3,0.5,0.5
			c0,0.1,0.2,0.3,0.1,0.5l0.1,0c0,0,0.1,0.1,0.1,0.1c-0.3,0.2,0.1,0.3,0.2,0.5c0.3-0.1,0-0.3,0.2-0.5l-0.1-0.1
			c0.2-0.2-0.2-0.1-0.1-0.3c0,0,0,0,0.1,0c0-0.3-0.1-0.4-0.3-0.5c-0.1-0.1,0.1-0.2,0-0.2c-0.1-0.1-0.2,0.1-0.3-0.1
			c0-0.2-0.3-0.3-0.4-0.5C115.4,37.1,115.1,37,114.9,36.9L114.9,36.9z"/>
		<path class="st13" d="M94.8,37.7c0,0,0-0.1,0-0.1c-0.4,0-0.9,0.1-1.2,0.3c0.1,0.1,0.1,0.2,0.3,0.2c0,0.3,0.4,0.3,0.5,0.6l0.1-0.1
			l0.2,0.3c0-0.1,0.1-0.1,0.2-0.1v-0.1c-0.3-0.2,0.2-0.5-0.1-0.8l0.1-0.1c0-0.1-0.2-0.1-0.2-0.2C94.7,37.7,94.7,37.7,94.8,37.7
			L94.8,37.7z"/>
		<path class="st106" d="M97.7,24.4c0-0.1,0-0.1,0-0.2c0-0.1,0-0.1,0-0.2c0-0.1,0-0.2,0-0.2l0-1.2l0.1-0.5c0-0.1,0-0.2-0.1-0.2
			c0.2-0.2,0-0.4,0-0.5c0.3-0.2,0-0.4,0.1-0.6c-0.2-0.1-0.4-0.1-0.6-0.2c-0.1,0.1-0.2,0.3-0.1,0.4c-0.2,0.2,0,0.5-0.1,0.8
			c0,0.2-0.1,0.5-0.1,0.7c0,0.1,0,0.3,0,0.4l0,0.2c0,0.3,0,0.5-0.1,0.8c0,0.1,0,0.2,0,0.4c0.1,0.5-0.3,0.8-0.1,1.2l0.2,0.1
			c-0.1,0.1,0,0.1,0,0.2c-0.1,0.1-0.2,0.2,0,0.2c0,0.1-0.1,0.1-0.2,0.2c0,0.1,0,0.1,0.1,0.2c-0.3,0.2,0.2,0.3,0,0.5
			c0.3-0.1,0.5,0.3,0.8,0.1c0-0.1-0.1-0.1-0.1-0.2c0-0.1,0.2-0.1,0.1-0.2c-0.1-0.1,0.1-0.1,0.1-0.2c-0.2-0.1-0.1-0.3,0-0.3
			c-0.1,0-0.1,0-0.2-0.1l0.1-0.1c0.1-0.1,0.1-0.2,0-0.2c0-0.1,0-0.1,0.1-0.2C97.6,25.1,97.6,24.7,97.7,24.4L97.7,24.4z"/>
		<path class="st106" d="M86.1,27.3c-0.2-0.1,0.1-0.3-0.1-0.4c-0.3,0.1,0,0.5-0.3,0.7c0,0.3,0.2,0.6,0,0.8c0.1,0.2-0.2,0.3,0,0.4
			c-0.1,0.2,0.1,0.4-0.2,0.5c0,0.4,0.2,0.8-0.1,1.1l0.3,0c0-0.2,0.3-0.2,0-0.3l0.1-0.1c0-0.1-0.1-0.1-0.1-0.2c0-0.1,0.1-0.2,0.2-0.2
			c-0.2-0.1,0-0.3-0.1-0.4c0-0.1,0-0.1,0.1-0.2c-0.1-0.2,0.1-0.4-0.1-0.5c0-0.1,0.1-0.1,0.2-0.1c-0.1-0.2,0-0.2,0-0.4
			c-0.3-0.1,0.2-0.2-0.1-0.3C86.2,27.6,85.8,27.4,86.1,27.3L86.1,27.3z"/>
		<path class="st106" d="M98.2,32.1c0,0,0.1-0.1,0.1-0.2c0,0,0.1,0,0.1,0c0.2,0.1,0,0.2,0.1,0.3c0-0.1,0.2-0.1,0.1-0.2
			c0-0.1-0.1-0.1-0.2-0.1c0,0-0.1,0-0.1,0l-0.1-0.3c-0.2,0-0.1-0.1-0.2-0.2c-0.3-0.1-0.3,0.2-0.5,0.4l-0.1-0.1
			c-0.8-0.4-1.7,0.2-2.5-0.3c0,0.2-0.2,0.3-0.1,0.5c0,0.1,0.1,0.1,0.2,0.1c0.2,0.1,0.4,0.1,0.7,0.1l0.1-0.1c0.5,0.4,1.1-0.1,1.6,0.1
			l0.2-0.1l0.1,0.1c0,0-0.1,0.1-0.1,0.1v0.1c0.1,0,0.1,0.1,0.2,0.2c0.1,0,0.3-0.2,0.4,0l0.1-0.1c0,0,0,0,0.1,0L98.2,32.1L98.2,32.1z
			"/>
		<path class="st106" d="M97.9,28.5c-0.1-0.1-0.2,0-0.2,0.1c-0.2,0.2,0.1,0.5-0.3,0.5c0,0.1,0,0.1,0,0.2c0.3,0.1,0.7-0.1,1,0
			c0,0,0.1-0.1,0.1-0.1c-0.4-0.1,0.3-0.3-0.1-0.4l0.1-0.2C98.3,28.4,98.1,28.5,97.9,28.5L97.9,28.5z"/>
		<path class="st106" d="M115.6,38.6c-0.1-0.2-0.5-0.3-0.6-0.1c-0.4-0.1-0.3,0.3-0.7,0.3l0.1,0.1l-0.2,0.2c0.3,0.1-0.2,0.3,0,0.4
			c-0.1,0.2,0,0.4,0.1,0.5c0,0,0,0.1,0,0.1c0.2,0.2,0.2,0.5,0.5,0.5c0.1,0.1,0.2,0,0.2,0.2c0.2,0,0.3-0.1,0.5,0
			c0.1,0,0.2-0.1,0.2-0.2c0.3,0.1,0.1-0.3,0.4-0.4c0,0,0-0.1,0-0.1c0,0,0.1-0.1,0.2-0.1c0.1-0.3,0-0.8-0.1-1.1
			C115.7,38.9,115.9,38.4,115.6,38.6L115.6,38.6z"/>
		<path class="st106" d="M102,37c-0.1-0.2-0.4-0.2-0.5,0c0.1,0.2-0.1,0.3-0.1,0.5c-0.1,0.1-0.3,0.2-0.5,0.2l-0.1,0.2
			c0,0.5,0.2,0.7,0.1,1.1c0.2,0.1-0.2,0.2,0.1,0.3c0,0-0.1,0.1-0.1,0.2c0.1,0,0.1,0,0.1,0.1c-0.1,0.1-0.1,0.4-0.3,0.3
			c-0.1,0.1-0.3,0.1-0.3,0.2c0.1,0.1,0.2,0.1,0.3,0.1c0.3-0.2,0.6,0,0.9-0.2c0.1,0,0.2,0,0.3,0c0.1-0.1,0.5,0.1,0.3-0.2l0.1-0.1
			c-0.1,0-0.2,0-0.2-0.1c-0.1-0.1,0-0.2,0-0.2c-0.4,0,0-0.4-0.2-0.6c0-0.1,0.2,0,0.2-0.2h-0.1c0-0.1-0.2-0.1-0.1-0.2
			c0,0,0.1,0,0.1,0c0-0.3-0.2-0.1-0.4-0.3c0.1-0.1,0-0.1,0-0.2c0.1-0.1,0.2-0.1,0.3-0.1c0.1-0.3-0.3-0.2-0.4-0.4l0.1-0.1
			C102.2,37.5,101.8,37.2,102,37L102,37z"/>
		<path class="st106" d="M110,37c-0.1-0.1,0.1-0.3-0.2-0.3c0,0.2-0.4,0-0.3,0.2c-0.1,0.1-0.1,0.4,0,0.6c-0.1,0.4-0.4-0.1-0.6,0.1
			c0.1,0.5,0,0.9-0.1,1.5c0.4,0.4,1,0,1.4,0.1c-0.1-0.2,0.1-0.5,0-0.6c0.3-0.2-0.1-0.3,0-0.5c0.1-0.2,0-0.4,0.2-0.5
			c-0.2,0-0.3-0.2-0.4-0.3C109.9,37.1,109.9,37,110,37C110,37,110,37,110,37L110,37z"/>
		<path class="st44" d="M115.8,39.4l0.2,0.1c-0.1,0.1-0.1,0.2,0,0.3c-0.3,0,0,0.2-0.2,0.3c-0.2,0.2-0.3,0.2-0.6,0.2
			c-0.1,0-0.3,0-0.4-0.1c0.1-0.1-0.1-0.2-0.2-0.3c0-0.1-0.2-0.3,0-0.5c0.1-0.1,0.2-0.2,0.2-0.4c0-0.1,0.2-0.1,0.3-0.2
			C115.3,39.1,115.8,39,115.8,39.4L115.8,39.4z"/>
		<path class="st106" d="M110.5,39.8l-0.3-0.3c-0.2,0-0.5-0.2-0.6,0.1c0.4,0.1,0.2,0.6,0.5,0.7c-0.3,0.2,0.1,0.4,0.1,0.6
			c-0.1,0.2-0.1,0.5-0.3,0.7c0,0,0,0.1,0,0.1c0.1,0,0.3,0.1,0.4,0c0.2-0.1,0.4-0.2,0.4-0.5c0.1-0.2,0-0.5,0.1-0.6c0,0,0,0-0.1,0
			c0-0.1-0.1-0.2,0-0.3C110.7,40,110.5,40,110.5,39.8L110.5,39.8z"/>
		<path class="st106" d="M95.4,40c0-0.2-0.2-0.2-0.3-0.3c-0.2,0-0.5-0.3-0.7,0c-0.1,0-0.2,0-0.2,0.1c0.1,0.1,0.2,0,0.2,0
			c0.3-0.2,0.4,0.2,0.7,0.3c-0.1,0.1-0.2,0.2-0.3,0.3c-0.2,0-0.5,0.1-0.6-0.2c0.1-0.1,0-0.2-0.1-0.3c0,0-0.1,0-0.2,0
			c0.3,0.2-0.2,0.3,0,0.5c-0.1,0.1-0.2,0.1-0.2,0.2c0,0,0,0,0-0.1h-0.1c-0.1,0.1-0.5,0.1-0.3,0.3c0.8,0.2,1.6-0.2,2.5,0l0.2-0.2
			c0.6,0,1.2-0.1,1.8-0.1c0.3,0,0.7,0.1,0.8-0.2c-0.1-0.1-0.3,0-0.3-0.1c-0.7,0.1-1.3,0.1-2.1,0.2c-0.1-0.4-0.5,0-0.5-0.4L95.4,40
			L95.4,40z"/>
		<path class="st108" d="M2.9,48.1c-1,3.5-1.6,8.4-1.6,13.9c0,5.5,0.6,10.4,1.6,13.9c0.5,1.8,1.1,3.1,1.6,4c0.6,0.9,1,1,1.2,1
			c0.1,0,0.6-0.1,1.2-1c0.6-0.9,1.1-2.2,1.6-4c1-3.5,1.6-8.4,1.6-13.9c0-5.5-0.6-10.4-1.6-13.9c-0.5-1.8-1.1-3.1-1.6-4
			c-0.6-0.9-1-1-1.2-1c-0.1,0-0.6,0.1-1.2,1C3.9,44.9,3.4,46.3,2.9,48.1L2.9,48.1z"/>
		<g>
			<polygon class="st14" points="65.6,88.8 66.5,89.6 69.9,85.6 69.9,85.6 67.9,90.8 68.6,91.4 73.5,88.7 73.5,88.7 70.1,92.7 
				70.9,93.4 75.4,88.3 74.2,87.2 69.3,90 69.3,90 71.3,84.8 70.1,83.7 65.6,88.8 			"/>
			<path class="st109" d="M78.1,91.1L78.1,91.1l-0.6,3.1l-1.8-1L78.1,91.1L78.1,91.1z M72.5,94.4l1.1,0.6l1.5-1.2l2.4,1.4L77,97
				l1.1,0.6l1.1-7.2l-1.1-0.6L72.5,94.4L72.5,94.4z"/>
			<polygon class="st14" points="79.5,98.2 80.6,98.7 83.3,92.5 82.2,92 79.5,98.2 			"/>
			<polygon class="st14" points="82.5,99.6 83.5,99.9 85.2,95.2 85.2,95.2 86.5,100.9 87.7,101.4 89.9,94.9 88.8,94.5 87.2,99.3 
				87.2,99.3 85.9,93.5 84.7,93.1 82.5,99.6 			"/>
			<polygon class="st14" points="90.5,96 92.7,96.4 91.7,102.1 92.8,102.3 93.8,96.6 96,97 96.1,96 90.7,95 90.5,96 			"/>
			<polygon class="st14" points="96.9,102.9 101.9,103 101.9,101.9 98.1,101.9 98.2,99.9 101.6,99.9 101.6,99 98.2,98.9 98.2,97.1 
				101.9,97.2 102,96.2 97.1,96.1 96.9,102.9 			"/>
			<polygon class="st14" points="104,103 105.1,102.9 104.5,97.9 104.5,97.9 108.2,102.5 109.5,102.4 108.6,95.6 107.5,95.7 
				108.1,100.7 108.1,100.7 104.4,96.1 103.1,96.3 104,103 			"/>
			<path class="st109" d="M112.8,95.8L112.8,95.8l1.8,2.5l-2,0.6L112.8,95.8L112.8,95.8z M111.3,102.1l1.2-0.3l0.1-1.9l2.6-0.7
				l1.1,1.6l1.2-0.4l-4.4-5.8l-1.2,0.3L111.3,102.1L111.3,102.1z"/>
			<polygon class="st14" points="119.1,99.8 120.2,99.3 118.1,94.8 118.1,94.8 123,98.1 124.2,97.6 121.4,91.3 120.4,91.8 
				122.4,96.4 122.4,96.4 117.5,93.1 116.3,93.6 119.1,99.8 			"/>
			<path class="st14" d="M128.8,89.2c-0.9-1.2-2.4-1.2-3.7-0.4c-1.7,1.1-1.9,3.1-0.8,4.8c1.1,1.6,3,2.3,4.7,1.2
				c1.4-0.9,1.7-2.5,0.9-3.9l-1,0.6c0.5,0.9,0.4,1.9-0.5,2.4c-1.2,0.8-2.4,0-3.1-1c-0.7-1.1-0.9-2.5,0.3-3.3
				c0.8-0.5,1.6-0.3,2.2,0.2L128.8,89.2L128.8,89.2z"/>
			<polygon class="st14" points="133.1,91.7 136.8,88.4 136.1,87.6 133.3,90.2 132,88.7 134.5,86.4 133.9,85.7 131.3,88 130.2,86.6 
				132.9,84.1 132.2,83.4 128.6,86.7 133.1,91.7 			"/>
			<path class="st14" d="M59.4,26.4c-1.4-0.5-2.7,0.2-3.4,1.5c-0.9,1.8,0,3.6,1.7,4.5c1.7,0.9,3.7,0.5,4.7-1.3
				c0.7-1.5,0.3-3-1.1-3.8l-0.5,1c0.8,0.5,1.3,1.4,0.8,2.4c-0.7,1.3-2.1,1.3-3.3,0.7c-1.2-0.6-2-1.7-1.4-3c0.5-0.9,1.2-1.1,2-0.9
				L59.4,26.4L59.4,26.4z"/>
			<path class="st109" d="M60.6,20.8c-1.2,1.6-0.7,3.6,0.9,4.8c1.6,1.2,3.6,1.2,4.8-0.5c1.2-1.6,0.7-3.6-0.9-4.8
				C63.9,19.2,61.8,19.2,60.6,20.8L60.6,20.8z M61.4,21.4c0.9-1.2,2.3-0.9,3.3-0.1c1,0.8,1.7,2,0.8,3.2c-0.9,1.2-2.3,0.9-3.3,0.1
				C61.2,23.8,60.5,22.6,61.4,21.4L61.4,21.4z"/>
			<polygon class="st14" points="69.2,21.5 70,20.7 66.5,17.1 66.5,17.1 72.2,18.5 73.1,17.7 68.4,12.8 67.6,13.6 71.1,17.2 
				71.1,17.2 65.3,15.7 64.4,16.6 69.2,21.5 			"/>
			<path class="st14" d="M73,14.9c0.9,1.4,2.4,1.3,3.7,0.5c1.1-0.7,1.9-2,1.1-3.3c-0.4-0.6-1.2-1-2.1-0.7c-0.4,0.1-1.8,0.6-1.9,0.6
				c-0.5,0.2-0.9,0.1-1.2-0.3c-0.4-0.6,0.1-1.1,0.6-1.4c0.7-0.4,1.4-0.5,1.9,0.2l1-0.6c-0.8-1.2-2.2-1.2-3.4-0.4c-1,0.7-1.7,1.9-1,3
				c0.4,0.6,1.1,1,2.2,0.6c0.9-0.3,1.5-0.5,2-0.6c0.3-0.1,0.6,0,0.9,0.4c0.3,0.4,0.2,1.1-0.6,1.6c-0.8,0.5-1.7,0.6-2.2-0.3L73,14.9
				L73,14.9z"/>
			<polygon class="st14" points="76.5,8.5 78.5,7.5 81.1,12.7 82.2,12.2 79.5,7 81.5,6 81,5.1 76.1,7.6 76.5,8.5 			"/>
			<path class="st109" d="M84.2,5l1.8-0.6c0.6-0.2,1.2-0.2,1.5,0.6c0.2,0.7,0,1.2-0.7,1.4L84.9,7L84.2,5L84.2,5z M85,10.9l1.1-0.4
				l-0.9-2.7l1.7-0.6c1-0.4,1.5,0.1,1.9,1.3c0.1,0.3,0.2,0.7,0.5,0.9L90.5,9c-0.3-0.2-0.7-0.8-0.9-1.6c-0.4-1-1-1.1-1.4-1l0,0
				c0.2-0.1,0.9-0.8,0.5-2c-0.4-1.1-1.3-1.5-2.7-1l-3.1,1.1L85,10.9L85,10.9z"/>
			<path class="st14" d="M91.4,6.3c0.2,1.7,1.4,2.5,3.1,2.3c1.7-0.2,2.7-1.2,2.5-2.9l-0.5-4.3l-1.2,0.1l0.5,3.9
				c0.1,0.9,0.2,2-1.3,2.2c-1.5,0.2-1.7-0.9-1.8-1.8l-0.5-3.9L90.9,2L91.4,6.3L91.4,6.3z"/>
			<path class="st14" d="M104.9,3.5c-0.1-1.5-1.2-2.4-2.8-2.5c-2-0.1-3.3,1.4-3.4,3.4c-0.1,1.9,1,3.6,3.1,3.7c1.6,0.1,2.9-1,3-2.6
				l-1.2-0.1c-0.1,1-0.8,1.7-1.8,1.7c-1.5-0.1-2-1.4-1.9-2.7c0.1-1.3,0.7-2.6,2.2-2.5c1,0.1,1.5,0.6,1.6,1.4L104.9,3.5L104.9,3.5z"
				/>
			<polygon class="st14" points="106,2.4 108.2,2.7 107.3,8.4 108.4,8.6 109.3,2.9 111.5,3.2 111.6,2.2 106.2,1.3 106,2.4 			"/>
			<polygon class="st14" points="111.6,9.2 112.7,9.5 114.6,2.9 113.5,2.6 111.6,9.2 			"/>
			<path class="st109" d="M119.4,4.4c-1.9-0.7-3.6,0.4-4.3,2.2c-0.7,1.8-0.1,3.8,1.8,4.5c1.9,0.7,3.6-0.4,4.3-2.2
				C121.9,7,121.3,5.1,119.4,4.4L119.4,4.4z M119,5.3c1.4,0.5,1.5,1.9,1.1,3.1c-0.4,1.2-1.5,2.2-2.8,1.7c-1.4-0.5-1.5-1.9-1.1-3.1
				C116.6,5.8,117.7,4.8,119,5.3L119,5.3z"/>
			<polygon class="st14" points="121.2,12.8 122.2,13.3 124.7,9 124.7,9 124.9,14.9 126,15.5 129.4,9.6 128.4,9 125.9,13.4 
				125.9,13.4 125.7,7.5 124.6,6.9 121.2,12.8 			"/>
			<path class="st109" d="M135.2,16L135.2,16l-1.3,2.8l-1.5-1.4L135.2,16L135.2,16z M129,17.8l0.9,0.9l1.7-0.9l2,1.9l-0.8,1.7
				l0.9,0.9l2.8-6.7l-0.9-0.9L129,17.8L129,17.8z"/>
			<polygon class="st14" points="134.3,23 135,23.9 139,20.9 139,20.9 136.9,26.4 137.6,27.4 143.1,23.3 142.4,22.4 138.4,25.4 
				138.4,25.4 140.5,19.9 139.7,18.9 134.3,23 			"/>
			<path class="st109" d="M144.4,27.2l0.5,1c0.8,1.7,0.1,2.5-1.1,3.1c-1.2,0.6-2.3,0.7-3.2-0.9l-0.5-1L144.4,27.2L144.4,27.2z
				 M138.6,28.8l1.3,2.5c1,1.9,2.7,2,4.4,1.1c1.7-0.9,2.6-2.4,1.7-4.2l-1.3-2.5L138.6,28.8L138.6,28.8z"/>
		</g>
	</g>
</g>
<g id="DeviceDescriptions" class="st0">
</g>
</svg>
