<?xml version="1.0" encoding="utf-8"?>
<!-- Generator: Adobe Illustrator 17.1.0, SVG Export Plug-In . SVG Version: 6.00 Build 0)  -->
<!DOCTYPE svg PUBLIC "-//W3C//DTD SVG 1.1//EN" "http://www.w3.org/Graphics/SVG/1.1/DTD/svg11.dtd">
<svg version="1.1" id="Layer_1" xmlns="http://www.w3.org/2000/svg" xmlns:xlink="http://www.w3.org/1999/xlink" x="0px" y="0px"
	 width="57.2px" height="17px" viewBox="30.3 9 57.2 17" enable-background="new 30.3 9 57.2 17" xml:space="preserve">
<g>
	<g>
		<g>
			<polygon fill="#A10B2A" points="41.1,23.6 46.1,23.6 48.3,18.4 49.4,23.6 52.3,23.6 56.1,18.4 55.6,23.6 60.7,23.6 60.7,14.1 
				55.2,14.1 51.8,19.2 51.2,14.1 45.7,14.1 			"/>
			<path fill="#A10B2A" d="M68,20.2l1.7-3.1l0.2,3.1H68z M72.9,14.2h-5.3l-6.3,9.4h5l0.7-1.3h3.4v1.3h5.1L72.9,14.2z"/>
			<path fill="#A10B2A" d="M81.3,23.9c-2.9,0.2-5.4-1-5.4-1l1.8-2.7c0,0,1.4,0.8,2.1,0.9c1.6,0.2,2.3,0,2.3-0.4c0-0.7-1.3-1-2.6-1.3
				s-1.8-0.9-2-1.7c-0.2-1.3,0.5-2.2,2-3.1c0.9-0.5,2.2-0.9,4-0.9s3.9,0.8,3.9,0.8L86.1,17c0,0-1.3-0.9-2.2-0.9
				c-0.7,0-1.5,0.1-1.6,0.7c-0.1,0.5,0.7,0.8,2,0.9c1.4,0.1,2.5,0.9,2.7,2.4C87.1,21.8,85.1,23.6,81.3,23.9"/>
		</g>
		<path fill="#A10B2A" d="M43.2,25.5L43.1,26c-4.9-1-14-3.8-12.7-9.9C31.5,11.3,39.2,9,47.5,9c9.2,0,15.2,3.7,15.2,3.7l-0.2,0.4
			c-1.3-0.7-5-3-16.4-2.9c-5.6,0-12.2,2.7-12.9,6.9C32.5,22.6,43.2,25.5,43.2,25.5"/>
	</g>
</g>
</svg>
