<?xml version="1.0" encoding="utf-8"?>
<!-- Generator: Adobe Illustrator 17.1.0, SVG Export Plug-In . SVG Version: 6.00 Build 0)  -->
<!DOCTYPE svg PUBLIC "-//W3C//DTD SVG 1.1//EN" "http://www.w3.org/Graphics/SVG/1.1/DTD/svg11.dtd">
<svg version="1.1" id="Layer_1" xmlns="http://www.w3.org/2000/svg" xmlns:xlink="http://www.w3.org/1999/xlink" x="0px" y="0px"
	 width="23px" height="23.1px" viewBox="-0.4 -2.5 23 23.1" enable-background="new -0.4 -2.5 23 23.1" xml:space="preserve">
<path fill="#E80031" d="M4.1-2.4c-2.5,0-4.5,2-4.5,4.5v14c0,2.5,2,4.5,4.5,4.5h14c2.5,0,4.5-2,4.5-4.5v-14c0-2.5-2-4.5-4.5-4.5
	L4.1-2.4L4.1-2.4z M5.2,1.4c1.2,0,1.9,0.8,1.9,1.8c0,1-0.8,1.8-2,1.8h0C4,5,3.2,4.2,3.2,3.2C3.2,2.2,4,1.4,5.2,1.4L5.2,1.4z
	 M15.4,6.2c2.3,0,4,1.5,4,4.7v6H16v-5.6c0-1.4-0.5-2.4-1.8-2.4c-1,0-1.5,0.6-1.8,1.3c-0.1,0.2-0.1,0.5-0.1,0.8v5.8H8.8
	c0,0,0-9.5,0-10.5h3.5v1.5C12.8,7.2,13.6,6.2,15.4,6.2L15.4,6.2z M3.4,6.4h3.5v10.5H3.4V6.4L3.4,6.4z"/>
</svg>
