<?xml version="1.0" encoding="utf-8"?>
<!-- Generator: Adobe Illustrator 17.1.0, SVG Export Plug-In . SVG Version: 6.00 Build 0)  -->
<!DOCTYPE svg PUBLIC "-//W3C//DTD SVG 1.1//EN" "http://www.w3.org/Graphics/SVG/1.1/DTD/svg11.dtd">
<svg version="1.1" id="Layer_1" xmlns="http://www.w3.org/2000/svg" xmlns:xlink="http://www.w3.org/1999/xlink" x="0px" y="0px"
	 width="117.7px" height="35px" viewBox="0 0 117.7 35" enable-background="new 0 0 117.7 35" xml:space="preserve">
<g>
	<g>
		<g>
			<polygon fill="#FFFFFF" points="22.2,30 32.6,30 37.1,19.3 39.3,30 45.4,30 53.2,19.3 52.1,30 62.6,30 62.6,10.5 51.4,10.5 
				44.4,21 43,10.6 31.8,10.6 			"/>
			<path fill="#FFFFFF" d="M77.6,23l3.6-6.4l0.5,6.4H77.6z M87.7,10.7H76.7L63.7,30h10.2l1.5-2.7h6.9l0,2.6h10.5L87.7,10.7z"/>
			<path fill="#FFFFFF" d="M105.1,30.6c-5.9,0.4-11.2-2-11.2-2l3.8-5.6c0,0,2.8,1.7,4.3,1.9c3.2,0.5,4.7,0.1,4.7-0.8
				c0-1.4-2.7-2.1-5.3-2.6c-2.6-0.5-3.8-1.8-4.1-3.5c-0.5-2.6,1-4.6,4.1-6.3c1.9-1,4.6-1.9,8.2-1.9c3.6,0,8.1,1.7,8.1,1.7l-2.8,4.9
				c0,0-2.6-1.9-4.5-1.9c-1.5,0-3.1,0.3-3.3,1.4c-0.2,1.1,1.4,1.7,4.2,1.9c2.9,0.2,5.1,1.9,5.5,5C117.1,26.4,112.8,30.1,105.1,30.6"
				/>
		</g>
		<path fill="#ED1C24" d="M26.6,34l-0.2,1c-10-2.1-28.9-7.8-26.1-20.3C2.5,4.8,18.4-0.1,35.5,0c19,0.1,31.3,7.7,31.3,7.7l-0.4,0.9
			c-2.7-1.5-10.2-6.2-33.7-6C21.2,2.7,7.6,8.2,6.2,16.8C4.5,28.1,26.6,34,26.6,34"/>
	</g>
</g>
</svg>
