<?xml version="1.0" encoding="utf-8"?>
<!-- Generator: Adobe Illustrator 17.1.0, SVG Export Plug-In . SVG Version: 6.00 Build 0)  -->
<!DOCTYPE svg PUBLIC "-//W3C//DTD SVG 1.1//EN" "http://www.w3.org/Graphics/SVG/1.1/DTD/svg11.dtd">
<svg version="1.1" id="Layer_1" xmlns="http://www.w3.org/2000/svg" xmlns:xlink="http://www.w3.org/1999/xlink" x="0px" y="0px"
	 width="30.1px" height="37px" viewBox="0 0 30.1 37" enable-background="new 0 0 30.1 37" xml:space="preserve">
<path id="pdf-file-2-icon" fill="#A10B2A" d="M18.8,3.6v7.7h7.7v22.1H3.6V3.6H18.8z M21.1,0H0v37h30.1V9L21.1,0z M23.5,19.6h-4.4
	v6.1h1.5v-2.4h2.5V22h-2.5v-1.2h2.9L23.5,19.6L23.5,19.6z M15.3,19.6h-2.7v6.1h2.7c0.9,0,1.6-0.3,2.1-0.9c0.9-1.1,1-3.4-0.1-4.5
	C16.8,19.8,16.1,19.6,15.3,19.6z M14.2,20.9H15c0.8,0,1.3,0.3,1.5,1.1c0.1,0.4,0.1,1.1,0,1.6c-0.2,0.6-0.6,0.9-1.3,0.9h-1.1
	L14.2,20.9L14.2,20.9z M9.6,19.6H6.8v6.1h1.5v-2.1h1.3c1,0,1.8-0.5,2-1.3c0.2-0.5,0.2-1,0-1.5C11.4,20,10.6,19.6,9.6,19.6z
	 M8.3,20.8h0.9c0.4,0,0.8,0,1,0.4c0.1,0.2,0.1,0.6,0,0.8c-0.2,0.3-0.6,0.4-1,0.4H8.3L8.3,20.8L8.3,20.8z"/>
</svg>
