<?xml version="1.0" encoding="utf-8"?>
<!-- Generator: Adobe Illustrator 17.1.0, SVG Export Plug-In . SVG Version: 6.00 Build 0)  -->
<!DOCTYPE svg PUBLIC "-//W3C//DTD SVG 1.1//EN" "http://www.w3.org/Graphics/SVG/1.1/DTD/svg11.dtd">
<svg version="1.1" id="Layer_1" xmlns="http://www.w3.org/2000/svg" xmlns:xlink="http://www.w3.org/1999/xlink" x="0px" y="0px"
	 width="22.1px" height="18px" viewBox="0 0 22.1 18" enable-background="new 0 0 22.1 18" xml:space="preserve">
<g>
	<defs>
		<rect id="SVGID_1_" x="0" width="22.1" height="18"/>
	</defs>
	<clipPath id="SVGID_2_">
		<use xlink:href="#SVGID_1_"  overflow="visible"/>
	</clipPath>
	<path clip-path="url(#SVGID_2_)" fill="#E80031" d="M19.9,4.5C20.2,10.9,15.4,18,7,18c-2.6,0-5-0.8-7-2c2.4,0.3,4.8-0.4,6.7-1.9
		c-2,0-3.7-1.4-4.2-3.2c0.7,0.1,1.4,0.1,2.1-0.1c-2.2-0.4-3.7-2.4-3.6-4.5c0.6,0.3,1.3,0.5,2.1,0.6c-2-1.4-2.6-4-1.4-6.1
		c2.2,2.7,5.6,4.6,9.4,4.7C10.2,2.7,12.4,0,15.3,0c1.3,0,2.5,0.6,3.3,1.4c1-0.2,2-0.6,2.9-1.1c-0.3,1.1-1.1,2-2,2.5
		c0.9-0.1,1.8-0.4,2.6-0.7C21.5,3,20.8,3.8,19.9,4.5"/>
</g>
</svg>
